<svg id="Layer_2" data-name="Layer 2" xmlns="http://www.w3.org/2000/svg" xmlns:xlink="http://www.w3.org/1999/xlink" width="1100" height="1000" viewBox="0 0 1100 1000"><defs><style>.cls-1{fill:none;}.cls-2{clip-path:url(#clip-path);}.cls-3{opacity:0.53;}.cls-4{fill:#f8c3dd;}.cls-5{fill:#e084b7;}.cls-6{fill:#ef8b8b;}.cls-7{fill:#231f20;}.cls-8{fill:#2d2525;}.cls-9{fill:#e4b69d;}.cls-10{fill:#fff;}.cls-11{fill:#cea28b;}.cls-12{opacity:0.54;}</style><clipPath id="clip-path"><rect class="cls-1" x="-0.72" y="-40.01" width="1102.38" height="1091.02"/></clipPath></defs><g class="cls-2"><g class="cls-3"><path class="cls-4" d="M443.74,642.52c-35.26-10.81-55.81-25.41-62.21-30.16-16.31-12.1-49.16-36.49-61.42-81.75-1.06-3.92-16.68-65,17.55-109.33,18.66-24.16,32.31-17.62,56.92-44,30.33-32.48,21.37-55,42.7-88,29.47-45.56,95.58-78.32,146.19-66,39.31,9.58,34.79,38,102.21,82.8,53,35.21,72.85,32.34,92.2,57.84,34.84,45.91,14,114-6.81,156.92-39.5,81.41-122.29,108.62-154,119C603.3,644.47,527.58,668.2,443.74,642.52Z"/></g><path class="cls-5" d="M403.27,393.27c-1.82-.47-4,.41-5.72,2.11-1.88-1.85-4.2-2.85-6.07-2.39-2.71.67-3.41,4.18-1.56,7.85,1.59,3.15,8.1,5.77,8.21,5.72a17.35,17.35,0,0,0,7.15-5.42C407.61,397.89,406,394,403.27,393.27Z"/><path class="cls-5" d="M720.68,407.57c-3.09.21-6,2.71-7.88,6.27-3.9-1.94-8.06-2.3-10.74-.62-3.91,2.45-3.19,8.32,1.6,13.11,4.12,4.12,15.69,4.86,15.82,4.73,3.6-3.36,6.86-7.19,8.42-12.19C729.86,412.57,725.36,407.24,720.68,407.57Z"/><path class="cls-4" d="M575.29,276.54c-2.34-.78-5.26.18-7.69,2.24-2.29-2.6-5.24-4.11-7.72-3.68-3.62.62-4.86,5.16-2.77,10.13,1.8,4.28,10.09,8.3,10.23,8.25,3.66-1.39,7.21-3.23,9.87-6.45C580.55,283,578.83,277.71,575.29,276.54Z"/><path class="cls-6" d="M584.49,291.25a2.44,2.44,0,0,0-2.22.65,2.61,2.61,0,0,0-2.23-1.06c-1,.18-1.4,1.49-.8,2.92.52,1.23,2.91,2.4,3,2.38a6.52,6.52,0,0,0,2.85-1.86A1.89,1.89,0,0,0,584.49,291.25Z"/><path class="cls-7" d="M612.26,620.36c5.42-4.69,10.77-9.47,16.09-14.28s10.58-9.67,15.81-14.57q15.71-14.71,30.81-30,3.76-3.83,7.48-7.72t7.37-7.83q3.66-3.95,7.24-8l3.56-4c1.17-1.36,2.35-2.71,3.5-4.08,4.65-5.45,9.16-11,13.44-16.79,2.13-2.88,4.2-5.81,6.17-8.81s3.84-6.05,5.55-9.21c-1.69,3.16-3.55,6.23-5.51,9.24s-4,5.94-6.14,8.83c-4.25,5.78-8.73,11.39-13.36,16.87-1.15,1.37-2.32,2.73-3.49,4.09s-2.35,2.71-3.54,4q-3.57,4-7.21,8T682.69,554q-3.69,3.9-7.45,7.76-15,15.42-30.68,30.17-7.81,7.4-15.77,14.65t-16,14.36Z"/><path class="cls-4" d="M617.54,616.49s58.85-39.85,49.79-16.56S617.54,616.49,617.54,616.49Z"/><path class="cls-4" d="M617.11,615.47s23.91-66.92,3.62-52.34S617.11,615.47,617.11,615.47Z"/><path class="cls-4" d="M660.88,575.38s23.91-66.92,3.61-52.34S660.88,575.38,660.88,575.38Z"/><path class="cls-4" d="M702.17,531.59s23.91-66.92,3.62-52.34S702.17,531.59,702.17,531.59Z"/><path class="cls-4" d="M661.38,576.12s58.84-39.85,49.78-16.56S661.38,576.12,661.38,576.12Z"/><path class="cls-4" d="M702.35,532.44s58.84-39.84,49.78-16.55S702.35,532.44,702.35,532.44Z"/><path class="cls-4" d="M741.5,487.56C733.65,502.1,720,510,720,510s-.89-15.7,7-30.24,17.47-24.57,21.48-22.4S749.36,473,741.5,487.56Z"/><path class="cls-7" d="M438.85,618.6c-3.93-3.55-7.81-7.16-11.66-10.79s-7.67-7.31-11.46-11q-11.36-11.12-22.26-22.68c-7.24-7.73-14.3-15.64-21-23.88-1.66-2.06-3.3-4.15-4.89-6.26s-3.16-4.25-4.67-6.43-2.95-4.4-4.32-6.66-2.66-4.59-3.8-7a78.17,78.17,0,0,0,3.84,7c1.38,2.26,2.84,4.47,4.36,6.63s3.09,4.3,4.7,6.4,3.25,4.18,4.93,6.23c6.69,8.2,13.8,16.06,21.08,23.74s14.77,15.17,22.38,22.52q5.72,5.52,11.52,10.94c3.87,3.61,7.76,7.19,11.71,10.71Z"/><path class="cls-4" d="M435.37,615.13s-44.42-30.94-39-14S435.37,615.13,435.37,615.13Z"/><path class="cls-4" d="M435.81,614.43s-13.81-48.54,1.44-37.27S435.81,614.43,435.81,614.43Z"/><path class="cls-4" d="M403.64,584s-13.81-48.54,1.44-37.28S403.64,584,403.64,584Z"/><path class="cls-4" d="M373.79,551.07s-13.81-48.54,1.44-37.28S373.79,551.07,373.79,551.07Z"/><path class="cls-4" d="M403.17,584.5s-44.43-31-39-14S403.17,584.5,403.17,584.5Z"/><path class="cls-4" d="M373.57,551.66s-44.43-30.95-39-14S373.57,551.66,373.57,551.66Z"/><path class="cls-4" d="M345.54,518c5.16,10.67,15.56,16.87,15.56,16.87A39.07,39.07,0,0,0,358,513.15c-5.16-10.66-12.13-18.22-15.56-16.87S340.38,507.38,345.54,518Z"/><path class="cls-8" d="M493.55,599.73s-90.76.33-74.24-88.19c0,0,3.07-18.52,23-52.45s26.28-51.36,33.33-75.18,27.27-58.24,79-50.43c38.41,5.79,49.43,39,56.78,54.21,5.14,10.61,12.28,22.42,16.74,27.59C650.65,441.36,690,538,648.49,568.42,598.45,605.08,493.55,599.73,493.55,599.73Z"/><path class="cls-9" d="M659.22,643.57H416.88c.38-27,4.54-50,11.07-69.33,13.22-39.11,36.14-62.9,57.07-72.74l.36-.17.73-.35.67-.32.41-.2.36-.18.7-.36c.75-.38,1.48-.77,2.19-1.18l.54-.3.58-.33c.69-.41,1.37-.82,2-1.24l.58-.37.62-.4.62-.41.53-.36.65-.45.44-.32c.25-.17.48-.34.72-.52l.56-.42a3.55,3.55,0,0,0,.31-.23l.33-.25.53-.41c.53-.41,1-.83,1.55-1.25l.51-.43c.56-.47,1.1-.94,1.62-1.42l.75-.68A69.75,69.75,0,0,0,518,470.55q.27-.48.51-1a54.93,54.93,0,0,0,4.58-11.81H553a57.28,57.28,0,0,0,5.63,13.76l.56,1a69.89,69.89,0,0,0,14.37,17.64c.29.26.59.52.9.77l.11.1.52.43.53.44.53.43.54.43.56.42c.36.29.74.57,1.12.84.57.42,1.15.84,1.75,1.25l.6.4.61.41c.65.43,1.31.85,2,1.27l.41.25.38.23.52.3c1.28.74,2.6,1.46,4,2.15l.43.22.42.2,1.27.61.37.17c26.51,12.46,56.23,47.31,65.35,107.34A255.06,255.06,0,0,1,659.22,643.57Z"/><path class="cls-10" d="M592.73,501.33a74.29,74.29,0,0,1-17.83-11.15l-31.73,52.45S514,503.7,502.65,489a73.79,73.79,0,0,1-19.24,12.38c-32.53,14.51-76.25,76.72-77.45,158.58l130.13-16.34h4l125.75,10.91C664.61,572.62,625.27,515.84,592.73,501.33Z"/><circle class="cls-9" cx="585.03" cy="414.51" r="10.62" transform="translate(162.54 993.8) rotate(-89.21)"/><circle class="cls-11" cx="581.1" cy="415.5" r="8.47" transform="translate(-119.83 553.41) rotate(-46.7)"/><circle class="cls-10" cx="588.18" cy="423.05" r="3.83"/><circle class="cls-9" cx="495.33" cy="414.51" r="10.62" transform="translate(-112.1 194.96) rotate(-20.05)"/><circle class="cls-11" cx="499.26" cy="415.5" r="8.47" transform="translate(-25.63 32.89) rotate(-3.68)"/><circle class="cls-10" cx="492.18" cy="423.05" r="3.83"/><path class="cls-11" d="M559.16,472.54a44.1,44.1,0,0,1-41.13-2q.27-.48.51-1a54.93,54.93,0,0,0,4.58-11.81H553a57.28,57.28,0,0,0,5.63,13.76Z"/><path class="cls-9" d="M542.17,473.2h0a44,44,0,0,1-45.71-42.32l-.94-24.34a44.05,44.05,0,0,1,42.33-45.71h0a44.06,44.06,0,0,1,45.71,42.33l.93,24.33A44,44,0,0,1,542.17,473.2Z"/><path class="cls-8" d="M495.93,411.05s17.76-34.27,38.64-38.55c20.6-4.21-2.2,15,47.31,37.68a1.85,1.85,0,0,0,2.58-1.31c2.1-10.32,8.8-53-21.71-62.21C528,336.21,480.68,363.7,495.93,411.05Z"/><path class="cls-5" d="M530.53,449.09s10.36,9.26,21.57,0"/><path class="cls-7" d="M545.51,427.56a3.41,3.41,0,0,1,.36,1.16,3.69,3.69,0,0,1,0,1.24,3.05,3.05,0,0,1-.43,1.19,4.4,4.4,0,0,1-.84,1,4.23,4.23,0,0,1-1.07.66,5.4,5.4,0,0,1-1.18.31A8,8,0,0,1,540,433v-.09a8.78,8.78,0,0,0,2.25-.29,3.93,3.93,0,0,0,1.83-1,2.85,2.85,0,0,0,.55-.87,9.22,9.22,0,0,0,.34-1,10.1,10.1,0,0,0,.25-1.05c.07-.36.12-.74.19-1.13Z"/><circle class="cls-4" cx="513.44" cy="434.43" r="10.08" transform="translate(-68.41 97.09) rotate(-10.13)"/><circle class="cls-4" cx="569.11" cy="434.43" r="10.08"/><path class="cls-7" d="M509.73,403.46a16.63,16.63,0,0,1,2.51-1.72,20.61,20.61,0,0,1,2.77-1.3,18.68,18.68,0,0,1,3-.84,19,19,0,0,1,3.11-.31,19.66,19.66,0,0,1,3.15.24,11.44,11.44,0,0,1,3,1,15.65,15.65,0,0,1,1.37.79c.21.15.44.28.65.44l.61.49.3.25a3.5,3.5,0,0,1,.28.27l.55.54a6.94,6.94,0,0,1,.51.59c.17.2.33.41.48.62l-.12.14c-.48-.21-.92-.46-1.37-.68l-.67-.32-.33-.17-.33-.15-.66-.31-.67-.28c-.43-.2-.89-.35-1.33-.53-.22-.09-.45-.15-.67-.23l-.33-.12-.34-.11-.67-.22-.68-.2a13.86,13.86,0,0,0-2.8-.54,16.32,16.32,0,0,0-2.88.05,16.61,16.61,0,0,0-2.87.51,20,20,0,0,0-2.8.94c-.46.19-.91.39-1.35.62a13.89,13.89,0,0,0-1.3.73Z"/><path class="cls-7" d="M573.89,403.46a16.63,16.63,0,0,0-2.51-1.72,20.61,20.61,0,0,0-2.77-1.3,17.64,17.64,0,0,0-6.08-1.15,19.66,19.66,0,0,0-3.15.24,11.44,11.44,0,0,0-3,1,14.31,14.31,0,0,0-1.37.79c-.22.15-.44.28-.65.44l-.61.49-.3.25a2.37,2.37,0,0,0-.28.27l-.56.54c-.18.19-.34.39-.5.59s-.33.41-.48.62l.12.14c.48-.21.92-.46,1.37-.68l.67-.32.32-.17.34-.15.66-.31.67-.28c.43-.2.89-.35,1.33-.53.22-.09.45-.15.67-.23l.33-.12.34-.11.67-.22.68-.2a13.73,13.73,0,0,1,2.8-.54,16.32,16.32,0,0,1,2.88.05,16.78,16.78,0,0,1,2.87.51,20.47,20.47,0,0,1,2.8.94c.45.19.9.39,1.35.62a13.89,13.89,0,0,1,1.3.73Z"/><path class="cls-7" d="M556.27,411.05a36.35,36.35,0,0,0,3.77,1.63,16.73,16.73,0,0,0,3.85,1l.49.05c.16,0,.33,0,.49,0h.48l.48,0a7.62,7.62,0,0,0,1.88-.41,8.83,8.83,0,0,0,3.3-2.23,6.57,6.57,0,0,1-3,3,6.75,6.75,0,0,1-2.1.65,8.45,8.45,0,0,1-2.19,0,12.14,12.14,0,0,1-4.08-1.27A13.4,13.4,0,0,1,556.27,411.05Z"/><path class="cls-7" d="M514.05,411.05a36.35,36.35,0,0,0,3.77,1.63,16.73,16.73,0,0,0,3.85,1l.49.05c.16,0,.33,0,.49,0h.48l.48,0a7.62,7.62,0,0,0,1.88-.41,8.83,8.83,0,0,0,3.3-2.23,6.57,6.57,0,0,1-2.95,3,6.75,6.75,0,0,1-2.1.65,8.45,8.45,0,0,1-2.19,0,12.14,12.14,0,0,1-4.08-1.27A13.4,13.4,0,0,1,514.05,411.05Z"/><rect class="cls-4" x="399.75" y="544.99" width="283.33" height="149.53"/><path class="cls-9" d="M407.61,606.24h-8.05a2.46,2.46,0,0,1-2.46-2.46h0a2.46,2.46,0,0,1,2.46-2.46h8.05a2.46,2.46,0,0,1,2.46,2.46h0A2.46,2.46,0,0,1,407.61,606.24Z"/><rect class="cls-9" x="397.1" y="606.65" width="12.97" height="4.92" rx="2.46"/><path class="cls-9" d="M407.61,616.89h-8.05a2.46,2.46,0,0,1-2.46-2.46h0a2.46,2.46,0,0,1,2.46-2.46h8.05a2.46,2.46,0,0,1,2.46,2.46h0A2.46,2.46,0,0,1,407.61,616.89Z"/><path class="cls-9" d="M403.5,622.22h-3.94a2.46,2.46,0,0,1-2.46-2.46h0a2.46,2.46,0,0,1,2.46-2.46h3.94a2.46,2.46,0,0,1,2.46,2.46h0A2.46,2.46,0,0,1,403.5,622.22Z"/><path class="cls-9" d="M683.72,606.24h-8.05a2.46,2.46,0,0,1-2.46-2.46h0a2.46,2.46,0,0,1,2.46-2.46h8.05a2.46,2.46,0,0,1,2.46,2.46h0A2.46,2.46,0,0,1,683.72,606.24Z"/><rect class="cls-9" x="673.21" y="606.65" width="12.97" height="4.92" rx="2.46"/><path class="cls-9" d="M683.72,616.89h-8.05a2.46,2.46,0,0,1-2.46-2.46h0a2.46,2.46,0,0,1,2.46-2.46h8.05a2.46,2.46,0,0,1,2.46,2.46h0A2.46,2.46,0,0,1,683.72,616.89Z"/><path class="cls-9" d="M683.72,622.22h-5.59a2.46,2.46,0,0,1-2.46-2.46h0a2.46,2.46,0,0,1,2.46-2.46h5.59a2.46,2.46,0,0,1,2.46,2.46h0A2.46,2.46,0,0,1,683.72,622.22Z"/><path class="cls-10" d="M466.11,591.47a74.49,74.49,0,0,1,12.26-1c6.31,0,10.94,1.47,13.88,4.11A13.33,13.33,0,0,1,496.58,605c0,4.48-1.32,8-3.82,10.57-3.38,3.6-8.88,5.44-15.12,5.44a22.39,22.39,0,0,1-5.14-.44v19.82h-6.39Zm6.39,23.86a21.16,21.16,0,0,0,5.28.52c7.71,0,12.41-3.75,12.41-10.57,0-6.54-4.62-9.69-11.67-9.69a27.08,27.08,0,0,0-6,.51Z"/><path class="cls-10" d="M539.75,638.75c-2.35,1.18-7,2.35-13.07,2.35-13.95,0-24.45-8.81-24.45-25,0-15.49,10.5-26,25.84-26,6.17,0,10.06,1.32,11.75,2.2l-1.54,5.21a23.4,23.4,0,0,0-10-2c-11.6,0-19.31,7.41-19.31,20.41,0,12.11,7,19.89,19,19.89a25.68,25.68,0,0,0,10.42-2Z"/><path class="cls-10" d="M588.49,615.11c0,17-10.35,26.07-23,26.07-13.06,0-22.24-10.14-22.24-25.11,0-15.71,9.76-26,23-26C579.76,590.08,588.49,600.43,588.49,615.11Zm-38.39.81c0,10.57,5.72,20,15.78,20s15.86-9.32,15.86-20.55c0-9.84-5.14-20.12-15.79-20.12S550.1,605.06,550.1,615.92Z"/><path class="cls-10" d="M595.91,632.59a22.62,22.62,0,0,0,11.45,3.23c6.53,0,10.35-3.45,10.35-8.45,0-4.62-2.64-7.26-9.32-9.83-8.08-2.87-13.07-7-13.07-14,0-7.7,6.39-13.43,16-13.43a22.45,22.45,0,0,1,10.94,2.42l-1.76,5.21a19.71,19.71,0,0,0-9.4-2.35c-6.75,0-9.32,4-9.32,7.42,0,4.62,3,6.9,9.84,9.54,8.37,3.23,12.62,7.27,12.62,14.54,0,7.63-5.65,14.24-17.32,14.24-4.77,0-10-1.39-12.63-3.16Z"/><g class="cls-3"><circle class="cls-4" cx="738.28" cy="111.72" r="77.91"/></g><circle class="cls-5" cx="734.99" cy="99.84" r="11.36" transform="translate(17.74 288.87) rotate(-22.5)"/><circle class="cls-5" cx="737.66" cy="138.14" r="8.69" transform="translate(433.73 824.33) rotate(-76.72)"/><circle class="cls-5" cx="764.95" cy="112.4" r="5.68"/><path class="cls-8" d="M788.84,218H786L784.91,215h-5.12l-1,2.91H776l5-12.81h2.74Zm-4.76-5.07-1.76-4.75-1.73,4.75Z"/><path class="cls-8" d="M798.41,213.24l2.5.8a5.63,5.63,0,0,1-1.91,3.11,6,6,0,0,1-7.6-.73,6.68,6.68,0,0,1-1.64-4.76,7,7,0,0,1,1.65-5,5.66,5.66,0,0,1,4.34-1.77,5.36,5.36,0,0,1,3.82,1.39,5.1,5.1,0,0,1,1.31,2.36l-2.56.61a2.66,2.66,0,0,0-2.7-2.15,2.92,2.92,0,0,0-2.31,1,5,5,0,0,0-.89,3.31,5.39,5.39,0,0,0,.88,3.46,2.85,2.85,0,0,0,2.27,1,2.56,2.56,0,0,0,1.77-.66A3.8,3.8,0,0,0,798.41,213.24Z"/><path class="cls-8" d="M803.16,218V205.14h2.52l5.24,8.55v-8.55h2.4V218h-2.6l-5.16-8.35V218Z"/><path class="cls-8" d="M816.05,218V205.14h9.5v2.17h-6.91v2.84h6.43v2.16h-6.43v3.48h7.15V218Z"/><g class="cls-3"><circle class="cls-4" cx="944.83" cy="325.09" r="77.91"/></g><path class="cls-5" d="M949.5,319.55a1.16,1.16,0,0,0-1.27.81l-3.14,9.93a.25.25,0,0,1-.48-.07L944.08,319a.19.19,0,0,0-.17-.19h0a.21.21,0,0,0-.22.14l-3.26,10.32a.32.32,0,0,1-.62-.08l-.51-10.81a.2.2,0,0,0-.18-.19h0a.19.19,0,0,0-.22.14l-3.26,10.31a.32.32,0,0,1-.62-.08l-.51-10.81a.22.22,0,0,0-.18-.19h0a.2.2,0,0,0-.21.14L930.85,328a.32.32,0,0,1-.62-.08l-.51-10.81a.19.19,0,0,0-.17-.19h0a.21.21,0,0,0-.22.14l-3.26,10.32a.32.32,0,0,1-.62-.08l-.52-10.81a.19.19,0,0,0-.17-.19h0a.2.2,0,0,0-.22.14l-3.26,10.32a.32.32,0,0,1-.62-.09l-.51-10.8a.2.2,0,0,0-.18-.19h0a.2.2,0,0,0-.22.13l-3.26,10.32a.32.32,0,0,1-.62-.08l-.51-10.81a.21.21,0,0,0-.18-.19h0a.2.2,0,0,0-.21.14l-3.26,10.32a.32.32,0,0,1-.63-.08l-.51-10.81a.19.19,0,0,0-.17-.19h0a.21.21,0,0,0-.22.14l-3.26,10.32a.32.32,0,0,1-.62-.08L905.79,314a.2.2,0,0,0-.18-.19h0a.19.19,0,0,0-.22.14l-3.26,10.31a.32.32,0,0,1-.62-.08L901,314a.91.91,0,0,0-.8-.87h0a.91.91,0,0,0-1,.79l-2.15,16.49a3.07,3.07,0,0,0,2.65,3.44L945,339.75a3.07,3.07,0,0,0,3.44-2.65l2.11-16.24a1.16,1.16,0,0,0-1-1.31Z"/><path class="cls-8" d="M928.44,335.77c.39-1.85.84-3.68,1.38-5.5a48.49,48.49,0,0,1,1.95-5.36,30.75,30.75,0,0,1,2.77-5.06,20.13,20.13,0,0,1,4-4.37,14.61,14.61,0,0,1,5.43-2.75,13.41,13.41,0,0,1,3.09-.45,16.62,16.62,0,0,1,3.08.23,34.22,34.22,0,0,1,5.67,1.62c1.79.64,3.52,1.3,5.25,1.84.86.26,1.72.5,2.59.7s1.73.35,2.59.46a25.21,25.21,0,0,0,2.6.17c.43,0,.86,0,1.29,0s.86-.06,1.29-.09.85-.1,1.27-.14.85-.15,1.27-.21.84-.18,1.27-.26l.62-.14.63-.18c.83-.2,1.65-.49,2.48-.75s1.64-.59,2.44-1a46.08,46.08,0,0,0,4.77-2.38l1.16-.7.58-.35c.2-.11.39-.24.58-.36l1.14-.75c.19-.13.39-.24.57-.37l.56-.4c3-2.09,5.92-4.43,8.89-6.8l.33.3a48.44,48.44,0,0,1-7.2,8.93,43.79,43.79,0,0,1-4.44,3.8c-.39.3-.8.56-1.21.84l-.61.42-.31.21-.31.19-1.28.76-.32.19-.33.17-.67.35c-.45.22-.88.46-1.35.65l-1.39.59a28.61,28.61,0,0,1-2.89.93l-.73.19-.75.15c-.5.1-1,.21-1.5.26l-.76.09c-.26,0-.51.07-.76.08-.51,0-1,.07-1.53.07a27.83,27.83,0,0,1-6-.58,37.1,37.1,0,0,1-5.7-1.68c-1.82-.68-3.56-1.45-5.27-2.17a31.34,31.34,0,0,0-5.06-1.75,11.58,11.58,0,0,0-5-.17,12.26,12.26,0,0,0-4.69,2,18,18,0,0,0-3.85,3.66q-.84,1.06-1.59,2.22c-.49.77-.95,1.56-1.39,2.38a47.08,47.08,0,0,0-2.31,5.05c-.69,1.73-1.29,3.51-1.84,5.3Z"/><path class="cls-8" d="M955.66,335.88c-.22,1.21-.49,2.42-.82,3.62a31.55,31.55,0,0,1-1.2,3.55,20,20,0,0,1-1.78,3.39,13.35,13.35,0,0,1-2.62,3,9.79,9.79,0,0,1-7.9,2.13,23.27,23.27,0,0,1-3.81-1c-1.18-.41-2.31-.82-3.42-1.15a15.59,15.59,0,0,0-6.52-.61c-.27,0-.53.07-.79.1s-.53.11-.79.15-.52.12-.78.17l-.39.09-.38.11c-.52.12-1,.31-1.55.46s-1,.35-1.55.58a31.08,31.08,0,0,0-3.06,1.42l-.76.42c-.25.14-.51.27-.76.43l-.75.45c-.26.14-.51.3-.75.46-2,1.25-4,2.67-6.09,4.07l-.34-.3a26.82,26.82,0,0,1,4.41-6.2,27.63,27.63,0,0,1,2.87-2.63c.25-.21.53-.39.79-.59s.53-.39.82-.56c.56-.35,1.12-.71,1.72-1a16.79,16.79,0,0,1,7.91-2,19.28,19.28,0,0,1,4.09.46,26.45,26.45,0,0,1,3.81,1.19c1.21.47,2.35,1,3.45,1.47a19.39,19.39,0,0,0,3.19,1.17,7.12,7.12,0,0,0,3.07.18,7.76,7.76,0,0,0,2.92-1.18,11.12,11.12,0,0,0,2.49-2.27,20,20,0,0,0,2-2.92,31.28,31.28,0,0,0,1.57-3.24c.47-1.12.89-2.26,1.28-3.42Z"/><path class="cls-8" d="M968.77,336.11c.65-.6,1.31-1.21,2-1.8l1-.86.52-.43.53-.42c.35-.27.7-.55,1.07-.82L975,331c.36-.27.75-.51,1.13-.75s.77-.49,1.18-.71a21.21,21.21,0,0,1,5.19-2.17l.72-.17c.24,0,.49-.07.73-.11a12.46,12.46,0,0,1,1.51-.13,10.83,10.83,0,0,1,3.12.4,13,13,0,0,1,2.89,1.26c.45.25.85.52,1.26.79l1.14.81c.37.28.72.54,1.06.81s.66.53,1,.77l.92.74.46.34c.15.12.3.24.45.34l.45.32.47.29.23.15.24.13c.17.08.33.17.49.26l.51.23c.17.07.34.17.52.23l.54.19a5.14,5.14,0,0,0,.55.2,22.66,22.66,0,0,0,5,.84l.13.43a10.34,10.34,0,0,1-5.46,1.87,12.88,12.88,0,0,1-1.52,0,4.92,4.92,0,0,1-.76-.09l-.77-.13a12.6,12.6,0,0,1-2.92-1.06,17.17,17.17,0,0,1-4.48-3.48c-.3-.32-.59-.6-.88-.9s-.57-.55-.86-.79a6.72,6.72,0,0,0-1.8-1.14,7.74,7.74,0,0,0-2.08-.52,8.59,8.59,0,0,0-1.14,0c-.19,0-.38,0-.58,0l-.58.07a18.38,18.38,0,0,0-4.79,1.27c-.4.14-.79.32-1.19.48s-.79.34-1.17.54l-1.17.57-1.15.62-.58.3-.57.33-1.14.67c-.75.45-1.49.93-2.25,1.39Z"/><path class="cls-8" d="M862.1,438.87v-12.8h9.5v2.16h-6.91v2.84h6.43v2.16h-6.43v3.49h7.15v2.15Z"/><path class="cls-8" d="M872.73,438.87l4.38-6.68-4-6.12h3l2.57,4.11,2.51-4.11h3l-4,6.22,4.38,6.58h-3.12l-2.84-4.42-2.84,4.42Z"/><path class="cls-8" d="M894.16,434.17l2.51.79a5.63,5.63,0,0,1-1.92,3.11,6,6,0,0,1-7.59-.72,6.65,6.65,0,0,1-1.65-4.77,7,7,0,0,1,1.65-5,5.67,5.67,0,0,1,4.35-1.77,5.31,5.31,0,0,1,3.81,1.39,5.05,5.05,0,0,1,1.31,2.36l-2.56.61a2.64,2.64,0,0,0-2.7-2.15,2.94,2.94,0,0,0-2.31,1,5,5,0,0,0-.88,3.31,5.39,5.39,0,0,0,.87,3.46,2.82,2.82,0,0,0,2.27,1,2.64,2.64,0,0,0,1.78-.65A3.83,3.83,0,0,0,894.16,434.17Z"/><path class="cls-8" d="M898.89,438.87v-12.8h9.49v2.16h-6.91v2.84h6.43v2.16h-6.43v3.49h7.16v2.15Z"/><path class="cls-8" d="M910.16,434.71l2.52-.25a3,3,0,0,0,.92,1.86,2.76,2.76,0,0,0,1.87.6,2.92,2.92,0,0,0,1.89-.53,1.58,1.58,0,0,0,.63-1.24,1.15,1.15,0,0,0-.27-.77,2,2,0,0,0-.93-.55c-.3-.11-1-.3-2.07-.56a7.05,7.05,0,0,1-2.91-1.27,3.37,3.37,0,0,1-.63-4.41,3.45,3.45,0,0,1,1.6-1.29,6.38,6.38,0,0,1,2.52-.45,5.37,5.37,0,0,1,3.63,1.06,3.72,3.72,0,0,1,1.28,2.82l-2.59.11a2.21,2.21,0,0,0-.71-1.42,2.59,2.59,0,0,0-1.64-.43,2.92,2.92,0,0,0-1.76.46.93.93,0,0,0-.41.8,1,1,0,0,0,.38.78,7,7,0,0,0,2.38.85,13,13,0,0,1,2.79.92,3.61,3.61,0,0,1,1.41,1.3,3.81,3.81,0,0,1,.52,2,3.77,3.77,0,0,1-.62,2.07,3.59,3.59,0,0,1-1.73,1.42,7,7,0,0,1-2.78.47,5.54,5.54,0,0,1-3.73-1.12A4.89,4.89,0,0,1,910.16,434.71Z"/><path class="cls-8" d="M922.1,434.71l2.51-.25a3,3,0,0,0,.92,1.86,2.79,2.79,0,0,0,1.88.6,2.89,2.89,0,0,0,1.88-.53,1.58,1.58,0,0,0,.63-1.24,1.19,1.19,0,0,0-.26-.77,2.1,2.1,0,0,0-.94-.55c-.3-.11-1-.3-2.07-.56a7.12,7.12,0,0,1-2.91-1.27,3.37,3.37,0,0,1-.63-4.41,3.5,3.5,0,0,1,1.6-1.29,6.38,6.38,0,0,1,2.52-.45,5.37,5.37,0,0,1,3.63,1.06,3.72,3.72,0,0,1,1.28,2.82l-2.59.11a2.17,2.17,0,0,0-.71-1.42,2.59,2.59,0,0,0-1.64-.43,2.94,2.94,0,0,0-1.76.46,1,1,0,0,0-.41.8,1,1,0,0,0,.38.78,7,7,0,0,0,2.38.85,13,13,0,0,1,2.79.92,3.64,3.64,0,0,1,1.42,1.3,4.06,4.06,0,0,1-.1,4.11,3.68,3.68,0,0,1-1.73,1.42,7.13,7.13,0,0,1-2.79.47,5.54,5.54,0,0,1-3.73-1.12A4.84,4.84,0,0,1,922.1,434.71Z"/><path class="cls-8" d="M934.6,438.87v-12.8h2.59v12.8Z"/><path class="cls-8" d="M942.92,438.87l-4.58-12.8h2.81l3.24,9.48,3.13-9.48h2.75l-4.59,12.8Z"/><path class="cls-8" d="M951.58,438.87v-12.8h9.5v2.16h-6.91v2.84h6.43v2.16h-6.43v3.49h7.15v2.15Z"/><path class="cls-8" d="M968.49,438.87v-12.8h2.59v5h5.07v-5h2.58v12.8h-2.58v-5.6h-5.07v5.6Z"/><path class="cls-8" d="M993,438.87h-2.81L989,436H983.9l-1,2.9H980.1l5-12.8h2.73Zm-4.76-5.06-1.76-4.75-1.73,4.75Z"/><path class="cls-8" d="M994.25,438.87v-12.8h2.58v12.8Z"/><path class="cls-8" d="M999.3,438.87v-12.8h5.44a9.39,9.39,0,0,1,3,.34,3,3,0,0,1,1.49,1.23,3.72,3.72,0,0,1,.56,2,3.45,3.45,0,0,1-.85,2.38,4.1,4.1,0,0,1-2.53,1.18,6.24,6.24,0,0,1,1.38,1.08,14.94,14.94,0,0,1,1.47,2.08l1.57,2.49h-3.1l-1.87-2.78a15.48,15.48,0,0,0-1.36-1.88,2,2,0,0,0-.78-.54,4.44,4.44,0,0,0-1.3-.14h-.52v5.34Zm2.59-7.39h1.91a10.25,10.25,0,0,0,2.32-.15,1.48,1.48,0,0,0,.73-.54,1.73,1.73,0,0,0,.26-1,1.53,1.53,0,0,0-.34-1,1.62,1.62,0,0,0-1-.5c-.21,0-.84,0-1.88,0h-2Z"/><path class="cls-8" d="M1017.25,438.87v-12.7h2.59v10.55h6.43v2.15Z"/><path class="cls-8" d="M1027.59,432.55a8.13,8.13,0,0,1,.58-3.28,6,6,0,0,1,1.19-1.76,5,5,0,0,1,1.66-1.15,7,7,0,0,1,2.76-.51,6,6,0,0,1,4.53,1.76,7.83,7.83,0,0,1,0,9.73,6,6,0,0,1-4.51,1.75,6,6,0,0,1-4.54-1.74A6.62,6.62,0,0,1,1027.59,432.55Zm2.66-.09a4.81,4.81,0,0,0,1,3.3,3.27,3.27,0,0,0,2.56,1.12,3.23,3.23,0,0,0,2.53-1.11,6.12,6.12,0,0,0,0-6.63,3.57,3.57,0,0,0-5.14,0A4.84,4.84,0,0,0,1030.25,432.46Z"/><path class="cls-8" d="M1041.37,434.71l2.52-.25a3,3,0,0,0,.92,1.86,2.75,2.75,0,0,0,1.87.6,2.89,2.89,0,0,0,1.88-.53,1.59,1.59,0,0,0,.64-1.24,1.15,1.15,0,0,0-.27-.77,2.11,2.11,0,0,0-.93-.55c-.3-.11-1-.3-2.07-.56A7.11,7.11,0,0,1,1043,432a3.34,3.34,0,0,1-1.18-2.58,3.31,3.31,0,0,1,.56-1.83,3.45,3.45,0,0,1,1.6-1.29,6.31,6.31,0,0,1,2.52-.45,5.41,5.41,0,0,1,3.63,1.06,3.71,3.71,0,0,1,1.27,2.82l-2.58.11a2.21,2.21,0,0,0-.71-1.42,2.61,2.61,0,0,0-1.64-.43,2.92,2.92,0,0,0-1.76.46.94.94,0,0,0-.42.8,1,1,0,0,0,.39.78,6.94,6.94,0,0,0,2.37.85,13.34,13.34,0,0,1,2.8.92,3.61,3.61,0,0,1,1.41,1.3,3.81,3.81,0,0,1,.51,2,3.76,3.76,0,0,1-.61,2.07,3.63,3.63,0,0,1-1.73,1.42,7.07,7.07,0,0,1-2.79.47,5.56,5.56,0,0,1-3.73-1.12A4.92,4.92,0,0,1,1041.37,434.71Z"/><path class="cls-8" d="M1053.3,434.71l2.52-.25a3,3,0,0,0,.92,1.86,2.76,2.76,0,0,0,1.87.6,2.89,2.89,0,0,0,1.88-.53,1.56,1.56,0,0,0,.64-1.24,1.15,1.15,0,0,0-.27-.77,2.11,2.11,0,0,0-.93-.55c-.3-.11-1-.3-2.07-.56a7.17,7.17,0,0,1-2.92-1.27,3.34,3.34,0,0,1-1.18-2.58,3.31,3.31,0,0,1,.56-1.83,3.45,3.45,0,0,1,1.6-1.29,6.31,6.31,0,0,1,2.52-.45,5.41,5.41,0,0,1,3.63,1.06,3.72,3.72,0,0,1,1.28,2.82l-2.59.11a2.21,2.21,0,0,0-.71-1.42,2.59,2.59,0,0,0-1.64-.43,2.92,2.92,0,0,0-1.76.46.93.93,0,0,0-.41.8,1,1,0,0,0,.38.78,7,7,0,0,0,2.38.85,13.42,13.42,0,0,1,2.79.92,3.61,3.61,0,0,1,1.41,1.3,3.81,3.81,0,0,1,.51,2,3.76,3.76,0,0,1-.61,2.07,3.63,3.63,0,0,1-1.73,1.42,7,7,0,0,1-2.78.47,5.52,5.52,0,0,1-3.73-1.12A4.89,4.89,0,0,1,1053.3,434.71Z"/><g class="cls-3"><circle class="cls-4" cx="931.09" cy="611.6" r="77.91"/></g><rect class="cls-10" x="893.98" y="586.04" width="76.67" height="61.57"/><rect class="cls-5" x="893.98" y="586.04" width="76.67" height="14.37"/><rect class="cls-8" x="902.58" y="604.82" width="3.53" height="3.53"/><rect class="cls-8" x="911.78" y="604.82" width="3.53" height="3.53"/><rect class="cls-8" x="956.79" y="604.97" width="6.24" height="6.24"/><rect class="cls-8" x="956.79" y="612.83" width="6.24" height="6.24"/><rect class="cls-8" x="956.79" y="620.7" width="6.24" height="6.24"/><rect class="cls-8" x="947.22" y="604.97" width="6.24" height="6.24"/><rect class="cls-8" x="947.22" y="612.83" width="6.24" height="6.24"/><rect class="cls-8" x="947.22" y="620.7" width="6.24" height="6.24"/><rect class="cls-8" x="938.02" y="604.97" width="6.24" height="6.24"/><rect class="cls-8" x="938.02" y="612.83" width="6.24" height="6.24"/><rect class="cls-8" x="938.02" y="620.7" width="6.24" height="6.24"/><rect class="cls-8" x="928.81" y="604.97" width="6.24" height="6.24"/><rect class="cls-8" x="928.81" y="612.83" width="6.24" height="6.24"/><rect class="cls-8" x="928.81" y="620.7" width="6.24" height="6.24"/><rect class="cls-8" x="919.61" y="604.97" width="6.24" height="6.24"/><rect class="cls-8" x="919.61" y="612.83" width="6.24" height="6.24"/><rect class="cls-8" x="919.61" y="620.7" width="6.24" height="6.24"/><rect class="cls-8" x="910.41" y="612.83" width="6.24" height="6.24"/><rect class="cls-8" x="910.41" y="620.7" width="6.24" height="6.24"/><rect class="cls-8" x="901.2" y="612.83" width="6.24" height="6.24"/><rect class="cls-8" x="901.2" y="620.7" width="6.24" height="6.24"/><rect class="cls-8" x="956.79" y="629.13" width="6.24" height="6.24"/><rect class="cls-8" x="947.22" y="629.13" width="6.24" height="6.24"/><rect class="cls-8" x="938.02" y="629.13" width="6.24" height="6.24"/><rect class="cls-8" x="928.81" y="629.13" width="6.24" height="6.24"/><rect class="cls-8" x="919.61" y="629.13" width="6.24" height="6.24"/><rect class="cls-8" x="910.41" y="629.13" width="6.24" height="6.24"/><rect class="cls-8" x="901.2" y="629.13" width="6.24" height="6.24"/><rect class="cls-8" x="956.79" y="637.56" width="3.85" height="3.85"/><rect class="cls-8" x="947.22" y="637.56" width="3.85" height="3.85"/><rect class="cls-8" x="938.02" y="637.56" width="3.85" height="3.85"/><rect class="cls-8" x="928.87" y="637.56" width="3.85" height="3.85"/><rect class="cls-8" x="919.61" y="637.56" width="3.85" height="3.85"/><rect class="cls-8" x="910.41" y="637.56" width="6.24" height="6.24"/><rect class="cls-8" x="901.2" y="637.56" width="6.24" height="6.24"/><path class="cls-8" d="M927.83,731.75V719h2.58v12.8Z"/><path class="cls-8" d="M932.88,731.75V719h5.45a9.36,9.36,0,0,1,3,.34,3,3,0,0,1,1.49,1.23,3.72,3.72,0,0,1,.56,2,3.45,3.45,0,0,1-.85,2.38A4.1,4.1,0,0,1,940,726.1a6,6,0,0,1,1.38,1.08,15.33,15.33,0,0,1,1.47,2.07l1.57,2.5h-3.1L939.43,729a16.87,16.87,0,0,0-1.36-1.89,2,2,0,0,0-.78-.53,4.44,4.44,0,0,0-1.3-.14h-.52v5.34Zm2.59-7.39h1.91a10.43,10.43,0,0,0,2.33-.15,1.42,1.42,0,0,0,.72-.55,1.67,1.67,0,0,0,.26-1,1.53,1.53,0,0,0-.34-1,1.62,1.62,0,0,0-1-.5c-.21,0-.84,0-1.88,0h-2Z"/><path class="cls-8" d="M945.8,731.75V719h5.44a9.39,9.39,0,0,1,3,.34,3,3,0,0,1,1.49,1.23,3.72,3.72,0,0,1,.56,2,3.45,3.45,0,0,1-.85,2.38,4.1,4.1,0,0,1-2.54,1.18,6.09,6.09,0,0,1,1.39,1.08,15.33,15.33,0,0,1,1.47,2.07l1.56,2.5h-3.09L952.35,729a16.87,16.87,0,0,0-1.36-1.89,2,2,0,0,0-.78-.53,4.44,4.44,0,0,0-1.3-.14h-.52v5.34Zm2.59-7.39h1.91a10.25,10.25,0,0,0,2.32-.15,1.44,1.44,0,0,0,.73-.55,1.67,1.67,0,0,0,.26-1,1.53,1.53,0,0,0-.34-1,1.62,1.62,0,0,0-1-.5c-.21,0-.84,0-1.88,0h-2Z"/><path class="cls-8" d="M958.71,731.75V719h9.5v2.16H961.3V724h6.43v2.16H961.3v3.49h7.15v2.15Z"/><path class="cls-8" d="M976.6,727v-2.15h5.57V730a7,7,0,0,1-2.35,1.38,8.56,8.56,0,0,1-3.12.6,7.07,7.07,0,0,1-3.51-.84,5.39,5.39,0,0,1-2.24-2.41,7.81,7.81,0,0,1-.75-3.41,7.37,7.37,0,0,1,.84-3.56,5.64,5.64,0,0,1,2.45-2.38,6.56,6.56,0,0,1,3.07-.64,6.07,6.07,0,0,1,3.72,1,4.53,4.53,0,0,1,1.73,2.76l-2.57.48a2.7,2.7,0,0,0-1-1.48,3,3,0,0,0-1.86-.55,3.54,3.54,0,0,0-2.7,1.07,4.57,4.57,0,0,0-1,3.19,5,5,0,0,0,1,3.42,3.37,3.37,0,0,0,2.65,1.14,4.3,4.3,0,0,0,1.63-.32,5.65,5.65,0,0,0,1.4-.77V727Z"/><path class="cls-8" d="M984.54,719h2.59v6.93a15.29,15.29,0,0,0,.09,2.14,2.11,2.11,0,0,0,.79,1.27,2.82,2.82,0,0,0,1.71.47,2.61,2.61,0,0,0,1.66-.45,1.77,1.77,0,0,0,.67-1.1,13.77,13.77,0,0,0,.12-2.18V719h2.58v6.72a17.22,17.22,0,0,1-.21,3.26,3.56,3.56,0,0,1-.77,1.61,3.91,3.91,0,0,1-1.51,1,6.53,6.53,0,0,1-2.46.39,7.14,7.14,0,0,1-2.78-.42,4,4,0,0,1-1.5-1.1,3.57,3.57,0,0,1-.73-1.42,16.31,16.31,0,0,1-.25-3.25Z"/><path class="cls-8" d="M997.55,731.75v-12.7h2.58V729.6h6.43v2.15Z"/><path class="cls-8" d="M1020,731.75h-2.81l-1.12-2.91h-5.12l-1,2.91h-2.75l5-12.8h2.74Zm-4.76-5.06-1.76-4.75-1.73,4.75Z"/><path class="cls-8" d="M1021.33,731.75V719h5.44a9.39,9.39,0,0,1,3,.34,3,3,0,0,1,1.49,1.23,3.72,3.72,0,0,1,.56,2,3.45,3.45,0,0,1-.85,2.38,4.1,4.1,0,0,1-2.53,1.18,6.24,6.24,0,0,1,1.38,1.08,15.33,15.33,0,0,1,1.47,2.07l1.57,2.5h-3.1l-1.87-2.78a16.87,16.87,0,0,0-1.36-1.89,2,2,0,0,0-.78-.53,4.44,4.44,0,0,0-1.3-.14h-.52v5.34Zm2.59-7.39h1.91a10.25,10.25,0,0,0,2.32-.15,1.44,1.44,0,0,0,.73-.55,1.67,1.67,0,0,0,.26-1,1.53,1.53,0,0,0-.34-1,1.62,1.62,0,0,0-1-.5c-.21,0-.84,0-1.88,0h-2Z"/><path class="cls-8" d="M1032.91,732l3.18-13.24h1.84L1034.72,732Z"/><path class="cls-8" d="M927.87,753.22V740.41h3.87l2.32,8.74,2.3-8.74h3.88v12.81h-2.4V743.14l-2.55,10.08H932.8l-2.53-10.08v10.08Z"/><path class="cls-8" d="M942.73,753.22V740.41h2.58v12.81Z"/><path class="cls-8" d="M947.12,749.05l2.52-.24a3.1,3.1,0,0,0,.92,1.86,2.76,2.76,0,0,0,1.87.59,2.83,2.83,0,0,0,1.88-.53,1.55,1.55,0,0,0,.64-1.23,1.15,1.15,0,0,0-.27-.77,2.12,2.12,0,0,0-.93-.56c-.3-.1-1-.29-2.07-.56a7,7,0,0,1-2.92-1.26,3.37,3.37,0,0,1-1.18-2.58,3.31,3.31,0,0,1,.56-1.83,3.47,3.47,0,0,1,1.6-1.3,6.32,6.32,0,0,1,2.52-.44,5.46,5.46,0,0,1,3.63,1,3.75,3.75,0,0,1,1.28,2.82l-2.59.12a2.21,2.21,0,0,0-.71-1.42,2.61,2.61,0,0,0-1.64-.43,2.92,2.92,0,0,0-1.76.46.91.91,0,0,0-.41.79,1,1,0,0,0,.38.78,6.76,6.76,0,0,0,2.38.86,12.32,12.32,0,0,1,2.79.92,3.61,3.61,0,0,1,1.41,1.3,3.81,3.81,0,0,1,.51,2,3.75,3.75,0,0,1-.61,2.06,3.65,3.65,0,0,1-1.73,1.43,7.23,7.23,0,0,1-2.78.47,5.52,5.52,0,0,1-3.73-1.13A4.84,4.84,0,0,1,947.12,749.05Z"/><path class="cls-8" d="M959.05,749.05l2.52-.24a3.1,3.1,0,0,0,.92,1.86,2.76,2.76,0,0,0,1.87.59,2.86,2.86,0,0,0,1.89-.53,1.56,1.56,0,0,0,.63-1.23,1.15,1.15,0,0,0-.27-.77,2,2,0,0,0-.93-.56c-.3-.1-1-.29-2.07-.56a6.94,6.94,0,0,1-2.91-1.26,3.34,3.34,0,0,1-1.18-2.58,3.3,3.3,0,0,1,.55-1.83,3.47,3.47,0,0,1,1.6-1.3,6.32,6.32,0,0,1,2.52-.44,5.42,5.42,0,0,1,3.63,1,3.75,3.75,0,0,1,1.28,2.82l-2.59.12a2.21,2.21,0,0,0-.71-1.42,2.59,2.59,0,0,0-1.64-.43,2.92,2.92,0,0,0-1.76.46.91.91,0,0,0-.41.79,1,1,0,0,0,.38.78,6.76,6.76,0,0,0,2.38.86,12,12,0,0,1,2.79.92,3.61,3.61,0,0,1,1.41,1.3,3.81,3.81,0,0,1,.51,2,3.75,3.75,0,0,1-.61,2.06,3.61,3.61,0,0,1-1.73,1.43,7.23,7.23,0,0,1-2.78.47,5.54,5.54,0,0,1-3.73-1.13A4.84,4.84,0,0,1,959.05,749.05Z"/><path class="cls-8" d="M971.64,753.22V740.41h9.49v2.17h-6.9v2.84h6.42v2.16h-6.42v3.48h7.15v2.16Z"/><path class="cls-8" d="M983.56,740.41h4.73a9.38,9.38,0,0,1,2.44.25,4.26,4.26,0,0,1,1.93,1.18,5.6,5.6,0,0,1,1.22,2.07,9.46,9.46,0,0,1,.42,3,8.45,8.45,0,0,1-.39,2.72,5.7,5.7,0,0,1-1.38,2.27,4.62,4.62,0,0,1-1.81,1,7.87,7.87,0,0,1-2.29.27h-4.87Zm2.59,2.17v8.48h1.93a7.15,7.15,0,0,0,1.56-.12,2.37,2.37,0,0,0,1.05-.53,2.76,2.76,0,0,0,.67-1.24,8.06,8.06,0,0,0,.27-2.34,7.44,7.44,0,0,0-.27-2.28,2.88,2.88,0,0,0-.73-1.24,2.45,2.45,0,0,0-1.2-.61,11.93,11.93,0,0,0-2.12-.12Z"/><path class="cls-8" d="M1001.46,753.22V740.41h4.15a14.62,14.62,0,0,1,3.07.2,3.37,3.37,0,0,1,1.85,1.25,4,4,0,0,1,.74,2.49,4.15,4.15,0,0,1-.43,2,3.54,3.54,0,0,1-1.09,1.26,3.83,3.83,0,0,1-1.34.61,15,15,0,0,1-2.68.18h-1.68v4.83Zm2.59-10.64v3.63h1.41a6.57,6.57,0,0,0,2-.2,1.62,1.62,0,0,0,.8-.63,1.8,1.8,0,0,0-.11-2.14,1.74,1.74,0,0,0-1-.57,12.09,12.09,0,0,0-1.86-.09Z"/><path class="cls-8" d="M1013.39,753.22V740.41h9.5v2.17H1016v2.84h6.43v2.16H1016v3.48h7.15v2.16Z"/><path class="cls-8" d="M1025.33,753.22V740.41h5.44a9.33,9.33,0,0,1,3,.35,3,3,0,0,1,1.49,1.23,3.71,3.71,0,0,1,.56,2,3.42,3.42,0,0,1-.85,2.38,4.05,4.05,0,0,1-2.53,1.19,5.94,5.94,0,0,1,1.38,1.07,15.6,15.6,0,0,1,1.47,2.08l1.57,2.5h-3.1l-1.87-2.79a17.42,17.42,0,0,0-1.36-1.88,1.84,1.84,0,0,0-.78-.53,4.05,4.05,0,0,0-1.3-.15h-.52v5.35Zm2.59-7.39h1.91a9.61,9.61,0,0,0,2.33-.16,1.35,1.35,0,0,0,.72-.54,1.7,1.7,0,0,0,.26-1,1.52,1.52,0,0,0-.34-1,1.58,1.58,0,0,0-1-.51c-.21,0-.84,0-1.88,0h-2Z"/><path class="cls-8" d="M1038.16,753.22V740.41h2.59v12.81Z"/><path class="cls-8" d="M1042.69,746.9a8.18,8.18,0,0,1,.58-3.29,6,6,0,0,1,1.2-1.75,4.92,4.92,0,0,1,1.65-1.16,7.19,7.19,0,0,1,2.76-.5,6,6,0,0,1,4.53,1.75,7.84,7.84,0,0,1,0,9.74,6.73,6.73,0,0,1-9,0A6.62,6.62,0,0,1,1042.69,746.9Zm2.66-.09a4.81,4.81,0,0,0,1,3.3,3.3,3.3,0,0,0,2.55,1.12,3.24,3.24,0,0,0,2.54-1.12,4.88,4.88,0,0,0,1-3.34,4.78,4.78,0,0,0-1-3.28,3.59,3.59,0,0,0-5.14,0A4.86,4.86,0,0,0,1045.35,746.81Z"/><path class="cls-8" d="M1057.12,740.41h4.72a9.32,9.32,0,0,1,2.44.25,4.2,4.2,0,0,1,1.93,1.18,5.49,5.49,0,0,1,1.23,2.07,9.78,9.78,0,0,1,.41,3,8.45,8.45,0,0,1-.39,2.72,5.68,5.68,0,0,1-1.37,2.27,4.67,4.67,0,0,1-1.82,1,7.83,7.83,0,0,1-2.29.27h-4.86Zm2.58,2.17v8.48h1.94a7.15,7.15,0,0,0,1.56-.12,2.29,2.29,0,0,0,1-.53,2.76,2.76,0,0,0,.68-1.24,8.48,8.48,0,0,0,.26-2.34,7.82,7.82,0,0,0-.26-2.28,3,3,0,0,0-.73-1.24,2.54,2.54,0,0,0-1.2-.61,11.93,11.93,0,0,0-2.12-.12Z"/><path class="cls-8" d="M1069.39,749.05l2.52-.24a3.1,3.1,0,0,0,.92,1.86,2.76,2.76,0,0,0,1.87.59,2.81,2.81,0,0,0,1.88-.53,1.55,1.55,0,0,0,.64-1.23,1.15,1.15,0,0,0-.27-.77,2.12,2.12,0,0,0-.93-.56c-.3-.1-1-.29-2.07-.56a7.05,7.05,0,0,1-2.92-1.26,3.37,3.37,0,0,1-1.18-2.58,3.31,3.31,0,0,1,.56-1.83,3.47,3.47,0,0,1,1.6-1.3,6.32,6.32,0,0,1,2.52-.44,5.44,5.44,0,0,1,3.63,1,3.75,3.75,0,0,1,1.28,2.82l-2.59.12a2.21,2.21,0,0,0-.71-1.42,2.59,2.59,0,0,0-1.64-.43,2.92,2.92,0,0,0-1.76.46.91.91,0,0,0-.41.79,1,1,0,0,0,.38.78,6.76,6.76,0,0,0,2.38.86,12.32,12.32,0,0,1,2.79.92,3.61,3.61,0,0,1,1.41,1.3,3.81,3.81,0,0,1,.51,2,3.75,3.75,0,0,1-.61,2.06,3.65,3.65,0,0,1-1.73,1.43,7.23,7.23,0,0,1-2.78.47,5.52,5.52,0,0,1-3.73-1.13A4.84,4.84,0,0,1,1069.39,749.05Z"/><g class="cls-3"><circle class="cls-4" cx="738.28" cy="832.98" r="77.91"/></g><polygon class="cls-4" points="769.16 882.26 762.73 871.23 761.38 872.01 767.82 883.04 763.45 885.59 763.82 886.22 773.9 880.34 773.53 879.71 769.16 882.26"/><g class="cls-12"><rect class="cls-9" x="739.15" y="812.83" width="14.01" height="63.09" transform="translate(-323.89 491.22) rotate(-30.27)"/></g><rect class="cls-5" x="750.99" y="871.46" width="23.34" height="2.4" transform="translate(-335.9 503.4) rotate(-30.27)"/><path class="cls-5" d="M731.6,816.35l-2.69,1.57L727,814.68a1.56,1.56,0,0,1,.56-2.13h0a1.56,1.56,0,0,1,2.13.56Z"/><polygon class="cls-5" points="728.03 814.42 708.43 779.73 728.99 813.86 728.03 814.42"/><rect class="cls-5" x="727.33" y="825.04" width="5.45" height="0.48" transform="translate(-316.46 480.49) rotate(-30.27)"/><rect class="cls-5" x="731.57" y="832.29" width="5.45" height="0.48" transform="translate(-319.55 483.65) rotate(-30.27)"/><rect class="cls-5" x="735.8" y="839.55" width="5.45" height="0.48" transform="translate(-322.61 486.73) rotate(-30.27)"/><rect class="cls-5" x="740.03" y="846.8" width="5.45" height="0.48" transform="translate(-325.7 489.87) rotate(-30.27)"/><rect class="cls-5" x="744.27" y="854.05" width="5.45" height="0.48" transform="matrix(0.86, -0.5, 0.5, 0.86, -328.78, 492.99)"/><rect class="cls-5" x="748.5" y="861.31" width="5.45" height="0.48" transform="translate(-331.85 496.11) rotate(-30.27)"/><rect class="cls-5" x="746.57" y="858.37" width="2.72" height="0.48" transform="translate(-330.83 494.08) rotate(-30.27)"/><rect class="cls-5" x="742.34" y="851.11" width="2.72" height="0.48" transform="translate(-327.75 490.95) rotate(-30.27)"/><rect class="cls-5" x="738.1" y="843.86" width="2.72" height="0.48" transform="matrix(0.86, -0.5, 0.5, 0.86, -324.67, 487.82)"/><rect class="cls-5" x="733.87" y="836.6" width="2.72" height="0.48" transform="translate(-321.57 484.64) rotate(-30.27)"/><rect class="cls-5" x="729.63" y="829.35" width="2.72" height="0.48" transform="translate(-318.51 481.59) rotate(-30.27)"/><path class="cls-8" d="M690.1,947.56V934.75h2.58v12.81Z"/><path class="cls-8" d="M695.17,947.56V934.75h2.52l5.24,8.55v-8.55h2.4v12.81h-2.59l-5.17-8.35v8.35Z"/><path class="cls-8" d="M707.41,943.39l2.51-.25a3.11,3.11,0,0,0,.93,1.87,2.79,2.79,0,0,0,1.87.59,2.89,2.89,0,0,0,1.88-.53,1.57,1.57,0,0,0,.64-1.23,1.16,1.16,0,0,0-.27-.78,2.11,2.11,0,0,0-.93-.55c-.3-.11-1-.29-2.07-.56a7.11,7.11,0,0,1-2.92-1.27,3.34,3.34,0,0,1-1.18-2.58,3.31,3.31,0,0,1,.56-1.83A3.45,3.45,0,0,1,710,935a6.31,6.31,0,0,1,2.52-.45,5.36,5.36,0,0,1,3.62,1.06,3.69,3.69,0,0,1,1.28,2.82l-2.58.11a2.24,2.24,0,0,0-.71-1.42,2.68,2.68,0,0,0-1.64-.43,3,3,0,0,0-1.77.47.93.93,0,0,0-.41.79,1,1,0,0,0,.39.78,6.73,6.73,0,0,0,2.37.85,12.69,12.69,0,0,1,2.8.93,3.54,3.54,0,0,1,1.41,1.3,3.81,3.81,0,0,1,.51,2,3.75,3.75,0,0,1-.61,2.06,3.71,3.71,0,0,1-1.73,1.43,7.3,7.3,0,0,1-2.79.46,5.54,5.54,0,0,1-3.73-1.12A4.92,4.92,0,0,1,707.41,943.39Z"/><path class="cls-8" d="M720,934.75h2.58v6.94a14.83,14.83,0,0,0,.1,2.14,2.07,2.07,0,0,0,.79,1.26,2.76,2.76,0,0,0,1.71.47,2.61,2.61,0,0,0,1.66-.45,1.78,1.78,0,0,0,.67-1.1,14,14,0,0,0,.11-2.18v-7.08h2.59v6.73a17.17,17.17,0,0,1-.21,3.25,3.61,3.61,0,0,1-.77,1.61,3.93,3.93,0,0,1-1.51,1,6.76,6.76,0,0,1-2.46.38,7.2,7.2,0,0,1-2.79-.42,3.9,3.9,0,0,1-1.49-1.1,3.51,3.51,0,0,1-.73-1.42,15.52,15.52,0,0,1-.25-3.25Z"/><path class="cls-8" d="M733,947.56v-12.7h2.59V945.4H742v2.16Z"/><path class="cls-8" d="M743.76,947.56V934.75h2.59v12.81Z"/><path class="cls-8" d="M748.84,947.56V934.75h2.51l5.25,8.55v-8.55H759v12.81h-2.6l-5.16-8.35v8.35Z"/><path class="cls-8" d="M766.71,947.56V934.75h5.44a9.37,9.37,0,0,1,3,.35,2.89,2.89,0,0,1,1.48,1.22,3.63,3.63,0,0,1,.56,2,3.43,3.43,0,0,1-.84,2.38,4,4,0,0,1-2.54,1.18,6.32,6.32,0,0,1,1.39,1.08,14.94,14.94,0,0,1,1.47,2.08l1.56,2.5h-3.09l-1.87-2.79a17.79,17.79,0,0,0-1.36-1.88,2.12,2.12,0,0,0-.78-.54,4.49,4.49,0,0,0-1.3-.14h-.52v5.35Zm2.59-7.39h1.91a10.07,10.07,0,0,0,2.32-.16,1.48,1.48,0,0,0,.73-.54,1.72,1.72,0,0,0,.26-1,1.57,1.57,0,0,0-.35-1,1.59,1.59,0,0,0-1-.5c-.21,0-.84,0-1.89,0h-2Z"/><path class="cls-8" d="M779.62,947.56V934.75h9.5v2.17h-6.91v2.84h6.42v2.15h-6.42v3.49h7.15v2.16Z"/><path class="cls-8" d="M790.9,943.39l2.51-.25a3.1,3.1,0,0,0,.92,1.87,2.84,2.84,0,0,0,1.88.59,2.89,2.89,0,0,0,1.88-.53,1.56,1.56,0,0,0,.63-1.23,1.2,1.2,0,0,0-.26-.78,2.11,2.11,0,0,0-.93-.55c-.31-.11-1-.29-2.07-.56a7.11,7.11,0,0,1-2.92-1.27,3.37,3.37,0,0,1-.63-4.41,3.5,3.5,0,0,1,1.6-1.29,6.38,6.38,0,0,1,2.52-.45,5.37,5.37,0,0,1,3.63,1.06,3.72,3.72,0,0,1,1.28,2.82l-2.58.11a2.2,2.2,0,0,0-.72-1.42,2.64,2.64,0,0,0-1.63-.43,3,3,0,0,0-1.77.47.93.93,0,0,0-.41.79,1,1,0,0,0,.39.78,6.64,6.64,0,0,0,2.37.85,12.39,12.39,0,0,1,2.79.93,3.5,3.5,0,0,1,1.42,1.3,3.81,3.81,0,0,1,.51,2,3.76,3.76,0,0,1-2.34,3.49,7.33,7.33,0,0,1-2.79.46,5.54,5.54,0,0,1-3.73-1.12A4.88,4.88,0,0,1,790.9,943.39Z"/><path class="cls-8" d="M803.41,947.56V934.75H806v12.81Z"/><path class="cls-8" d="M807.8,943.39l2.51-.25a3.11,3.11,0,0,0,.93,1.87,2.79,2.79,0,0,0,1.87.59,2.89,2.89,0,0,0,1.88-.53,1.57,1.57,0,0,0,.64-1.23,1.16,1.16,0,0,0-.27-.78,2.11,2.11,0,0,0-.93-.55c-.3-.11-1-.29-2.07-.56a7.11,7.11,0,0,1-2.92-1.27,3.34,3.34,0,0,1-1.18-2.58,3.31,3.31,0,0,1,.56-1.83,3.45,3.45,0,0,1,1.6-1.29,6.31,6.31,0,0,1,2.52-.45,5.36,5.36,0,0,1,3.62,1.06,3.69,3.69,0,0,1,1.28,2.82l-2.58.11a2.24,2.24,0,0,0-.71-1.42,2.68,2.68,0,0,0-1.64-.43,3,3,0,0,0-1.77.47.93.93,0,0,0-.41.79,1,1,0,0,0,.39.78,6.73,6.73,0,0,0,2.37.85,12.39,12.39,0,0,1,2.79.93,3.5,3.5,0,0,1,1.42,1.3,3.81,3.81,0,0,1,.51,2,3.75,3.75,0,0,1-.61,2.06,3.71,3.71,0,0,1-1.73,1.43,7.3,7.3,0,0,1-2.79.46,5.54,5.54,0,0,1-3.73-1.12A4.92,4.92,0,0,1,807.8,943.39Z"/><path class="cls-8" d="M823.27,947.56V936.92h-3.8v-2.17h10.17v2.17h-3.79v10.64Z"/><path class="cls-8" d="M841.53,947.56h-2.81l-1.12-2.91h-5.12l-1.05,2.91h-2.75l5-12.81h2.74Zm-4.76-5.07L835,937.74l-1.73,4.75Z"/><path class="cls-8" d="M842.93,947.56V934.75h2.52l5.24,8.55v-8.55h2.4v12.81H850.5l-5.17-8.35v8.35Z"/><path class="cls-8" d="M864,942.85l2.5.79a5.63,5.63,0,0,1-1.91,3.12A6.06,6.06,0,0,1,857,946a6.68,6.68,0,0,1-1.64-4.76,7,7,0,0,1,1.65-5,5.66,5.66,0,0,1,4.34-1.77,5.36,5.36,0,0,1,3.82,1.39,5.05,5.05,0,0,1,1.31,2.36l-2.56.61a2.71,2.71,0,0,0-.95-1.57,2.68,2.68,0,0,0-1.75-.58,2.91,2.91,0,0,0-2.31,1,5,5,0,0,0-.89,3.31,5.31,5.31,0,0,0,.88,3.46,2.82,2.82,0,0,0,2.27,1,2.57,2.57,0,0,0,1.77-.65A3.8,3.8,0,0,0,864,942.85Z"/><path class="cls-8" d="M868.74,947.56V934.75h9.5v2.17h-6.91v2.84h6.43v2.15h-6.43v3.49h7.15v2.16Z"/><g class="cls-3"><circle class="cls-4" cx="403.32" cy="836.84" r="77.91"/></g><rect class="cls-5" x="398.8" y="815.78" width="6.34" height="26.79"/><polygon class="cls-5" points="389.32 819.48 401.97 797.57 414.63 819.48 389.32 819.48"/><path class="cls-5" d="M391.81,876l-11.27-6.51v-13l11.27-6.51,11.28,6.51v13Zm-9-7.8,9,5.22,9-5.22V857.73l-9-5.22-9,5.22Z"/><path class="cls-5" d="M412.13,876l-11.28-6.51v-13l11.28-6.51,11.28,6.51v13Zm-9-7.8,9,5.22,9-5.22V857.73l-9-5.22-9,5.22Z"/><path class="cls-5" d="M422.53,858.4l-11.28-6.51v-13l11.28-6.51,11.27,6.51v13Zm-9-7.8,9,5.22,9-5.22V840.16l-9-5.21-9,5.21Z"/><rect class="cls-5" x="370.09" y="870.23" width="12.12" height="2.24" transform="translate(-329.29 236.45) rotate(-24.66)"/><path class="cls-5" d="M444.48,856.17l-12.67-4.12V838.72l12.67-4.12,7.84,10.78Zm-10.43-5.75,9.58,3.12,5.92-8.16-5.92-8.15-9.58,3.12Z"/><path class="cls-8" d="M206.06,947.66v-12.8h2.58v5h5.07v-5h2.59v12.8h-2.59v-5.6h-5.07v5.6Z"/><path class="cls-8" d="M218.89,947.66v-12.8h2.59v12.8Z"/><path class="cls-8" d="M229.9,943V940.8h5.57v5.1a7.14,7.14,0,0,1-2.35,1.38,8.57,8.57,0,0,1-3.13.6,7,7,0,0,1-3.5-.84,5.46,5.46,0,0,1-2.25-2.41,7.85,7.85,0,0,1-.75-3.42,7.36,7.36,0,0,1,.84-3.55,5.68,5.68,0,0,1,2.46-2.39,6.67,6.67,0,0,1,3.06-.63,6.12,6.12,0,0,1,3.73,1,4.49,4.49,0,0,1,1.72,2.76l-2.56.48a2.77,2.77,0,0,0-1-1.49,3.11,3.11,0,0,0-1.87-.54,3.5,3.5,0,0,0-2.69,1.07,4.52,4.52,0,0,0-1,3.19,5,5,0,0,0,1,3.42,3.39,3.39,0,0,0,2.66,1.14,4.54,4.54,0,0,0,1.63-.32,5.65,5.65,0,0,0,1.4-.77V943Z"/><path class="cls-8" d="M237.86,947.66v-12.8h2.59v5h5.06v-5h2.59v12.8h-2.59v-5.6h-5.06v5.6Z"/><path class="cls-8" d="M258.63,947.66V937h-3.8v-2.16H265V937h-3.79v10.64Z"/><path class="cls-8" d="M266.67,947.66v-12.8h9.49V937h-6.9v2.84h6.42V942h-6.42v3.48h7.15v2.16Z"/><path class="cls-8" d="M278,943.49l2.51-.24a3.1,3.1,0,0,0,.92,1.86,2.79,2.79,0,0,0,1.88.59,2.89,2.89,0,0,0,1.88-.52,1.6,1.6,0,0,0,.63-1.24,1.19,1.19,0,0,0-.26-.77,2.12,2.12,0,0,0-.93-.56c-.31-.1-1-.29-2.07-.56a7,7,0,0,1-2.92-1.26,3.34,3.34,0,0,1-1.18-2.58,3.3,3.3,0,0,1,.55-1.83,3.52,3.52,0,0,1,1.6-1.3,6.57,6.57,0,0,1,2.52-.44,5.42,5.42,0,0,1,3.63,1.05,3.76,3.76,0,0,1,1.28,2.83l-2.58.11a2.17,2.17,0,0,0-.72-1.42,2.58,2.58,0,0,0-1.63-.43,3,3,0,0,0-1.77.46.94.94,0,0,0-.41.8,1,1,0,0,0,.39.77,6.59,6.59,0,0,0,2.37.86,12.47,12.47,0,0,1,2.79.92,3.58,3.58,0,0,1,1.42,1.3,4,4,0,0,1-.1,4.1,3.7,3.7,0,0,1-1.73,1.43,7.32,7.32,0,0,1-2.79.47,5.59,5.59,0,0,1-3.73-1.12A4.88,4.88,0,0,1,278,943.49Z"/><path class="cls-8" d="M293.42,947.66V937h-3.8v-2.16h10.17V937H296v10.64Z"/><path class="cls-8" d="M300.61,941.34a8.17,8.17,0,0,1,.59-3.29,6.1,6.1,0,0,1,1.19-1.75,5,5,0,0,1,1.66-1.16,7.12,7.12,0,0,1,2.76-.5,6,6,0,0,1,4.53,1.75,7.88,7.88,0,0,1,0,9.74,6,6,0,0,1-4.51,1.75,6,6,0,0,1-4.54-1.74A6.64,6.64,0,0,1,300.61,941.34Zm2.67-.09a4.81,4.81,0,0,0,1,3.3,3.46,3.46,0,0,0,5.09,0,4.93,4.93,0,0,0,1-3.35,4.83,4.83,0,0,0-1-3.28,3.59,3.59,0,0,0-5.14,0A4.81,4.81,0,0,0,303.28,941.25Z"/><path class="cls-8" d="M314.4,943.49l2.51-.24a3.1,3.1,0,0,0,.92,1.86,2.79,2.79,0,0,0,1.88.59,2.89,2.89,0,0,0,1.88-.52,1.6,1.6,0,0,0,.63-1.24,1.14,1.14,0,0,0-.26-.77,2.12,2.12,0,0,0-.93-.56c-.31-.1-1-.29-2.07-.56a7,7,0,0,1-2.92-1.26,3.35,3.35,0,0,1-.62-4.41,3.44,3.44,0,0,1,1.59-1.3,6.57,6.57,0,0,1,2.52-.44,5.42,5.42,0,0,1,3.63,1.05,3.72,3.72,0,0,1,1.28,2.83l-2.58.11a2.21,2.21,0,0,0-.71-1.42,2.61,2.61,0,0,0-1.64-.43,3,3,0,0,0-1.77.46.94.94,0,0,0-.41.8,1,1,0,0,0,.39.77,6.59,6.59,0,0,0,2.37.86,12.47,12.47,0,0,1,2.79.92,3.58,3.58,0,0,1,1.42,1.3,3.81,3.81,0,0,1,.51,2,3.75,3.75,0,0,1-.61,2.06,3.7,3.7,0,0,1-1.73,1.43,7.32,7.32,0,0,1-2.79.47,5.59,5.59,0,0,1-3.73-1.12A4.88,4.88,0,0,1,314.4,943.49Z"/><path class="cls-8" d="M329.87,947.66V937h-3.8v-2.16h10.17V937h-3.79v10.64Z"/><path class="cls-8" d="M337.91,947.66v-12.8h9.5V937H340.5v2.84h6.43V942H340.5v3.48h7.15v2.16Z"/><path class="cls-8" d="M349.85,947.66v-12.8h5.44a9.39,9.39,0,0,1,3,.34,3,3,0,0,1,1.49,1.23,3.72,3.72,0,0,1,.56,2,3.45,3.45,0,0,1-.85,2.38A4.1,4.1,0,0,1,357,942a6.22,6.22,0,0,1,1.38,1.07,15.6,15.6,0,0,1,1.47,2.08l1.56,2.5h-3.09l-1.87-2.79A17.42,17.42,0,0,0,355,943a1.94,1.94,0,0,0-.78-.53,4.12,4.12,0,0,0-1.3-.14h-.52v5.34Zm2.59-7.39h1.91a9.44,9.44,0,0,0,2.32-.16,1.37,1.37,0,0,0,.73-.54,1.67,1.67,0,0,0,.26-1,1.52,1.52,0,0,0-.34-1,1.57,1.57,0,0,0-1-.5c-.21,0-.84-.05-1.88-.05h-2Z"/><path class="cls-8" d="M362.24,941.34a8.18,8.18,0,0,1,.58-3.29,5.93,5.93,0,0,1,1.2-1.75,4.92,4.92,0,0,1,1.65-1.16,7.19,7.19,0,0,1,2.76-.5,6,6,0,0,1,4.53,1.75,7.84,7.84,0,0,1,0,9.74,5.94,5.94,0,0,1-4.5,1.75,6.05,6.05,0,0,1-4.55-1.74A6.64,6.64,0,0,1,362.24,941.34Zm2.66-.09a4.81,4.81,0,0,0,1,3.3,3.46,3.46,0,0,0,5.09,0,4.93,4.93,0,0,0,1-3.35,4.83,4.83,0,0,0-1-3.28,3.59,3.59,0,0,0-5.14,0A4.86,4.86,0,0,0,364.9,941.25Z"/><path class="cls-8" d="M376.7,947.66v-12.8h2.52l5.24,8.55v-8.55h2.4v12.8h-2.59l-5.16-8.35v8.35Z"/><path class="cls-8" d="M389.6,947.66v-12.8h9.49V937h-6.91v2.84h6.43V942h-6.43v3.48h7.16v2.16Z"/><path class="cls-8" d="M406.57,947.66V935h2.58V945.5h6.43v2.16Z"/><path class="cls-8" d="M417.43,947.66v-12.8h9.49V937H420v2.84h6.43V942H420v3.48h7.15v2.16Z"/><path class="cls-8" d="M432.62,947.66l-4.57-12.8h2.8l3.24,9.47,3.14-9.47H440l-4.59,12.8Z"/><path class="cls-8" d="M441.29,947.66v-12.8h9.49V937h-6.91v2.84h6.43V942h-6.43v3.48H451v2.16Z"/><path class="cls-8" d="M453.29,947.66V935h2.59V945.5h6.42v2.16Z"/><path class="cls-8" d="M463.49,943.49l2.52-.24a3.1,3.1,0,0,0,.92,1.86,2.76,2.76,0,0,0,1.87.59,2.92,2.92,0,0,0,1.89-.52,1.6,1.6,0,0,0,.63-1.24,1.15,1.15,0,0,0-.27-.77,2,2,0,0,0-.93-.56c-.3-.1-1-.29-2.07-.56a6.94,6.94,0,0,1-2.91-1.26,3.34,3.34,0,0,1-1.18-2.58,3.3,3.3,0,0,1,.55-1.83,3.47,3.47,0,0,1,1.6-1.3,6.5,6.5,0,0,1,2.52-.44,5.42,5.42,0,0,1,3.63,1.05,3.76,3.76,0,0,1,1.28,2.83l-2.59.11a2.21,2.21,0,0,0-.71-1.42,2.59,2.59,0,0,0-1.64-.43,2.92,2.92,0,0,0-1.76.46.92.92,0,0,0-.41.8,1,1,0,0,0,.38.77,6.76,6.76,0,0,0,2.38.86,12.47,12.47,0,0,1,2.79.92,3.61,3.61,0,0,1,1.41,1.3,3.81,3.81,0,0,1,.51,2,3.75,3.75,0,0,1-.61,2.06,3.61,3.61,0,0,1-1.73,1.43,7.23,7.23,0,0,1-2.78.47,5.59,5.59,0,0,1-3.73-1.12A4.89,4.89,0,0,1,463.49,943.49Z"/><g class="cls-3"><circle class="cls-4" cx="403.32" cy="111.72" r="77.91"/></g><rect class="cls-5" x="393.91" y="73.71" width="21.83" height="76.21" transform="translate(92.15 -168.58) rotate(26.44)"/><path class="cls-10" d="M414.07,104.53l.33-.65a2.41,2.41,0,0,0-1.09-3.23l-4.41-2.19a2.41,2.41,0,0,0-3.23,1.08l-.31.62a2.05,2.05,0,0,0-2.11,1.11l-7,14a2,2,0,0,0,.39,2.35l-.39.77a2.4,2.4,0,0,0,1.09,3.22l4.41,2.2a2.41,2.41,0,0,0,3.23-1.08l.39-.8a2,2,0,0,0,2-1.12l7-14A2,2,0,0,0,414.07,104.53Z"/><rect class="cls-10" x="403.08" y="104.64" width="4.94" height="13.19" transform="translate(91.96 -168.96) rotate(26.44)"/><rect class="cls-5" x="403.88" y="108.01" width="5.8" height="0.86" transform="translate(90.85 -169.8) rotate(26.44)"/><path class="cls-4" d="M405.69,103.52l-6.15,12.38,5.72,2.84,6.15-12.37Zm-1.43,14.14L401,116.05l5.68-11.43,3.24,1.61Z"/><ellipse class="cls-10" cx="393.41" cy="134.39" rx="6.04" ry="6.41" transform="translate(97.89 426.8) rotate(-63.56)"/><circle class="cls-4" cx="393.65" cy="134.28" r="1.66" transform="translate(-22.27 132.26) rotate(-18.56)"/><path class="cls-8" d="M265.28,216.86V206.22h-3.8v-2.17h10.18v2.17h-3.79v10.64Z"/><path class="cls-8" d="M273.34,216.86V204.05h5.44a9.26,9.26,0,0,1,3,.35,2.93,2.93,0,0,1,1.49,1.23,3.68,3.68,0,0,1,.56,2A3.39,3.39,0,0,1,283,210a4,4,0,0,1-2.53,1.19,5.73,5.73,0,0,1,1.38,1.07,14.58,14.58,0,0,1,1.48,2.08l1.56,2.5h-3.09l-1.87-2.79a20.92,20.92,0,0,0-1.36-1.88,2,2,0,0,0-.78-.53,4.14,4.14,0,0,0-1.3-.15h-.53v5.35Zm2.58-7.39h1.92a9.5,9.5,0,0,0,2.32-.16,1.31,1.31,0,0,0,.72-.54,1.65,1.65,0,0,0,.27-1,1.52,1.52,0,0,0-.35-1,1.55,1.55,0,0,0-1-.51c-.21,0-.84,0-1.89,0h-2Z"/><path class="cls-8" d="M285.72,210.54a8.17,8.17,0,0,1,.59-3.29,6,6,0,0,1,1.19-1.75,5,5,0,0,1,1.66-1.16,6.94,6.94,0,0,1,2.76-.5,6,6,0,0,1,4.53,1.75,7.88,7.88,0,0,1,0,9.74,6.74,6.74,0,0,1-9,0A6.66,6.66,0,0,1,285.72,210.54Zm2.67-.09a4.81,4.81,0,0,0,1,3.3,3.3,3.3,0,0,0,2.55,1.12,3.23,3.23,0,0,0,2.54-1.12,4.88,4.88,0,0,0,1-3.34,4.83,4.83,0,0,0-1-3.28,3.59,3.59,0,0,0-5.14,0A4.8,4.8,0,0,0,288.39,210.45Z"/><path class="cls-8" d="M300.14,204.05h2.59V211a13.44,13.44,0,0,0,.1,2.14,2.07,2.07,0,0,0,.79,1.26,2.71,2.71,0,0,0,1.7.48,2.59,2.59,0,0,0,1.66-.45,1.78,1.78,0,0,0,.68-1.11,15.25,15.25,0,0,0,.11-2.17v-7.09h2.59v6.73a17.3,17.3,0,0,1-.21,3.26,3.62,3.62,0,0,1-.78,1.61,3.9,3.9,0,0,1-1.5,1,6.55,6.55,0,0,1-2.47.39,6.93,6.93,0,0,1-2.78-.43,4,4,0,0,1-1.5-1.1,3.48,3.48,0,0,1-.72-1.42,15.32,15.32,0,0,1-.26-3.25Z"/><path class="cls-8" d="M313.09,204.05h5.12a15.39,15.39,0,0,1,2.27.13,3.38,3.38,0,0,1,1.33.53,3.27,3.27,0,0,1,1,1.07,2.81,2.81,0,0,1,.4,1.5,2.93,2.93,0,0,1-.49,1.65,3,3,0,0,1-1.31,1.12,3.39,3.39,0,0,1,1.8,1.17,3.06,3.06,0,0,1,.63,1.93,3.83,3.83,0,0,1-.41,1.7,3.32,3.32,0,0,1-1.11,1.31,3.61,3.61,0,0,1-1.73.61q-.65.07-3.12.09h-4.36Zm2.59,2.14v3h1.69c1,0,1.63,0,1.88-.05a1.65,1.65,0,0,0,1-.46,1.35,1.35,0,0,0,.38-1,1.4,1.4,0,0,0-.33-1,1.43,1.43,0,0,0-1-.45c-.26,0-1,0-2.21,0Zm0,5.09v3.42h2.39a10.62,10.62,0,0,0,1.77-.08,1.5,1.5,0,0,0,1.3-1.6,1.61,1.61,0,0,0-.28-1,1.53,1.53,0,0,0-.8-.59,9,9,0,0,0-2.3-.18Z"/><path class="cls-8" d="M326.07,216.86v-12.7h2.59V214.7h6.42v2.16Z"/><path class="cls-8" d="M336.93,216.86V204.05h9.49v2.17h-6.91v2.84h6.43v2.16h-6.43v3.48h7.16v2.16Z"/><path class="cls-8" d="M362,212.15l2.51.8a5.59,5.59,0,0,1-1.92,3.11,6,6,0,0,1-7.59-.72,6.67,6.67,0,0,1-1.65-4.77,7,7,0,0,1,1.66-5,5.67,5.67,0,0,1,4.34-1.76,5.33,5.33,0,0,1,3.81,1.38,5,5,0,0,1,1.31,2.36l-2.55.61a2.79,2.79,0,0,0-.95-1.57,2.74,2.74,0,0,0-1.75-.57,2.91,2.91,0,0,0-2.31,1,5,5,0,0,0-.89,3.31,5.39,5.39,0,0,0,.87,3.46,2.85,2.85,0,0,0,2.27,1,2.6,2.6,0,0,0,1.78-.66A3.76,3.76,0,0,0,362,212.15Z"/><path class="cls-8" d="M366.22,210.54a8.17,8.17,0,0,1,.59-3.29A6,6,0,0,1,368,205.5a5.06,5.06,0,0,1,1.66-1.16,6.94,6.94,0,0,1,2.76-.5,6,6,0,0,1,4.53,1.75,7.88,7.88,0,0,1,0,9.74,6.74,6.74,0,0,1-9,0A6.66,6.66,0,0,1,366.22,210.54Zm2.67-.09a4.81,4.81,0,0,0,1,3.3,3.3,3.3,0,0,0,2.55,1.12,3.23,3.23,0,0,0,2.54-1.12,4.88,4.88,0,0,0,1-3.34,4.83,4.83,0,0,0-1-3.28,3.59,3.59,0,0,0-5.14,0A4.8,4.8,0,0,0,368.89,210.45Z"/><path class="cls-8" d="M380.69,216.86V204.05h2.51l5.25,8.56v-8.56h2.4v12.81h-2.6l-5.16-8.35v8.35Z"/><path class="cls-8" d="M401.77,212.15l2.51.8a5.59,5.59,0,0,1-1.92,3.11,5.43,5.43,0,0,1-3.4,1,5.5,5.5,0,0,1-4.19-1.74,6.66,6.66,0,0,1-1.64-4.77,7,7,0,0,1,1.65-5,5.69,5.69,0,0,1,4.34-1.76,5.35,5.35,0,0,1,3.82,1.38,5.1,5.1,0,0,1,1.31,2.36l-2.56.61a2.64,2.64,0,0,0-2.7-2.14,2.91,2.91,0,0,0-2.31,1,5,5,0,0,0-.89,3.31,5.39,5.39,0,0,0,.87,3.46,2.87,2.87,0,0,0,2.28,1,2.59,2.59,0,0,0,1.77-.66A3.76,3.76,0,0,0,401.77,212.15Z"/><path class="cls-8" d="M406.5,216.86V204.05H416v2.17h-6.91v2.84h6.42v2.16h-6.42v3.48h7.15v2.16Z"/><path class="cls-8" d="M418.35,216.86V204.05h2.59v12.81Z"/><path class="cls-8" d="M426.67,216.86l-4.58-12.81h2.81l3.24,9.48,3.13-9.48H434l-4.59,12.81Z"/><path class="cls-8" d="M435.26,216.86V204.05h2.58v12.81Z"/><path class="cls-8" d="M440.33,216.86V204.05h2.52l5.24,8.56v-8.56h2.4v12.81h-2.6l-5.16-8.35v8.35Z"/><path class="cls-8" d="M459.18,212.15V210h5.57v5.1a6.88,6.88,0,0,1-2.35,1.39,8.56,8.56,0,0,1-3.12.6,7,7,0,0,1-3.51-.85,5.34,5.34,0,0,1-2.24-2.41,7.78,7.78,0,0,1-.75-3.41,7.33,7.33,0,0,1,.84-3.55,5.66,5.66,0,0,1,2.45-2.39,6.68,6.68,0,0,1,3.07-.63,6.07,6.07,0,0,1,3.72,1,4.47,4.47,0,0,1,1.73,2.76l-2.57.48a2.72,2.72,0,0,0-1-1.49,3.1,3.1,0,0,0-1.86-.54,3.5,3.5,0,0,0-2.7,1.07,4.57,4.57,0,0,0-1,3.19,5,5,0,0,0,1,3.42,3.37,3.37,0,0,0,2.65,1.14,4.54,4.54,0,0,0,1.63-.32,5.65,5.65,0,0,0,1.4-.77v-1.63Z"/><path class="cls-8" d="M465.81,217.08,469,203.84h1.84l-3.2,13.24Z"/><path class="cls-8" d="M262.32,238.33V225.52h2.59v12.81Z"/><path class="cls-8" d="M267.4,238.33V225.52h2.51l5.24,8.55v-8.55h2.41v12.81H275L269.8,230v8.35Z"/><path class="cls-8" d="M280.31,238.33V225.52h8.78v2.17h-6.2v3h5.35v2.16h-5.35v5.45Z"/><path class="cls-8" d="M291.22,238.33V225.52h9.49v2.17H293.8v2.84h6.43v2.15H293.8v3.49H301v2.16Z"/><path class="cls-8" d="M303.16,238.33V225.52h5.44a9.26,9.26,0,0,1,3,.35,3,3,0,0,1,1.49,1.22,3.72,3.72,0,0,1,.56,2,3.39,3.39,0,0,1-.85,2.38,4,4,0,0,1-2.53,1.18,6.32,6.32,0,0,1,1.39,1.08,14.94,14.94,0,0,1,1.47,2.08l1.56,2.5h-3.09l-1.87-2.79a17.79,17.79,0,0,0-1.36-1.88,2.12,2.12,0,0,0-.78-.54,4.49,4.49,0,0,0-1.3-.14h-.53v5.35Zm2.58-7.39h1.92a10.07,10.07,0,0,0,2.32-.16,1.48,1.48,0,0,0,.73-.54,1.72,1.72,0,0,0,.26-1,1.57,1.57,0,0,0-.35-1.05,1.59,1.59,0,0,0-1-.5c-.21,0-.84,0-1.89,0h-2Z"/><path class="cls-8" d="M319,238.33V227.69h-3.8v-2.17h10.18v2.17h-3.79v10.64Z"/><path class="cls-8" d="M326.92,238.33V225.52h2.58v12.81Z"/><path class="cls-8" d="M332,238.33v-12.7h2.58v10.54h6.43v2.16Z"/><path class="cls-8" d="M342.81,238.33V225.52h2.59v12.81Z"/><path class="cls-8" d="M350.75,238.33V227.69H347v-2.17h10.17v2.17h-3.79v10.64Z"/><path class="cls-8" d="M362.15,238.33v-5.39l-4.69-7.42h3l3,5.07,2.95-5.07h3L364.73,233v5.38Z"/><g class="cls-3"><circle class="cls-4" cx="143.7" cy="327.62" r="77.91"/></g><path class="cls-9" d="M172.34,333.83l0,.05c.19.38.41.76.63,1.13a6.71,6.71,0,0,1,.42.85h0a6.9,6.9,0,1,1-13.29,2.63s0-2.21.34-5.65a2.73,2.73,0,0,0-2.72-3h-7.64a2.73,2.73,0,0,0-2.43,4l0,.05c.2.38.42.76.63,1.13a6.77,6.77,0,0,1,.43.85h0a6.9,6.9,0,1,1-13.29,2.63s0-2.21.34-5.65a2.73,2.73,0,0,0-2.71-3h-7.64a2.73,2.73,0,0,0-2.44,4l0,.05c.19.38.41.76.63,1.13a6.71,6.71,0,0,1,.42.85h0a6.9,6.9,0,1,1-13.29,2.63,84,84,0,0,1,.66-8.63h-8.84v31.06H181V329.87h-6.22A2.73,2.73,0,0,0,172.34,333.83Z"/><path class="cls-8" d="M128.9,292.66C112.31,300.94,112,337.87,112,337.87c0,3.91,2.74,7.07,6.08,6.9,2.91-.15,5.31-2.89,5.54-6.34a8.17,8.17,0,0,0-.41-3.19h0a8.14,8.14,0,0,0-.35-.86c-.19-.37-.38-.75-.54-1.14C110.58,305.75,128.9,292.66,128.9,292.66Z"/><path class="cls-8" d="M153.5,292.66c-16.6,8.28-16.89,45.21-16.89,45.21,0,3.91,2.74,7.07,6.08,6.9,2.91-.15,5.31-2.89,5.55-6.34a8.37,8.37,0,0,0-.42-3.19h0a8.14,8.14,0,0,0-.35-.86q-.28-.56-.54-1.14C135.17,305.75,153.5,292.66,153.5,292.66Z"/><path class="cls-8" d="M178.09,292.66c-16.6,8.28-16.89,45.21-16.89,45.21,0,3.91,2.74,7.07,6.08,6.9,2.91-.15,5.31-2.89,5.55-6.34a8.18,8.18,0,0,0-.42-3.19h0c-.11-.3-.23-.58-.36-.86s-.37-.75-.54-1.14C159.76,305.75,178.09,292.66,178.09,292.66Z"/><path class="cls-8" d="M43.35,438.87v-12.8h9.5v2.16H45.94v2.84h6.43v2.16H45.94v3.49h7.15v2.15Z"/><path class="cls-8" d="M54,438.87l4.38-6.68-4-6.12h3L60,430.18l2.51-4.11h3l-4,6.22,4.38,6.58H62.77l-2.84-4.42-2.84,4.42Z"/><path class="cls-8" d="M75.41,434.17l2.51.79A5.63,5.63,0,0,1,76,438.07a6,6,0,0,1-7.59-.72,6.65,6.65,0,0,1-1.65-4.77,7,7,0,0,1,1.65-5,5.68,5.68,0,0,1,4.35-1.77,5.31,5.31,0,0,1,3.81,1.39,5,5,0,0,1,1.31,2.36l-2.56.61a2.64,2.64,0,0,0-2.7-2.15,2.94,2.94,0,0,0-2.31,1,5,5,0,0,0-.88,3.31,5.39,5.39,0,0,0,.87,3.46,2.82,2.82,0,0,0,2.27,1,2.64,2.64,0,0,0,1.78-.65A3.83,3.83,0,0,0,75.41,434.17Z"/><path class="cls-8" d="M80.14,438.87v-12.8h9.49v2.16H82.72v2.84h6.43v2.16H82.72v3.49h7.16v2.15Z"/><path class="cls-8" d="M91.41,434.71l2.52-.25a3,3,0,0,0,.92,1.86,2.76,2.76,0,0,0,1.87.6,2.92,2.92,0,0,0,1.89-.53,1.58,1.58,0,0,0,.63-1.24,1.15,1.15,0,0,0-.27-.77,2,2,0,0,0-.93-.55c-.3-.11-1-.3-2.07-.56A7.05,7.05,0,0,1,93.06,432a3.37,3.37,0,0,1-.63-4.41A3.45,3.45,0,0,1,94,426.3a6.38,6.38,0,0,1,2.52-.45,5.37,5.37,0,0,1,3.63,1.06,3.72,3.72,0,0,1,1.28,2.82l-2.59.11a2.17,2.17,0,0,0-.71-1.42,2.59,2.59,0,0,0-1.64-.43,2.92,2.92,0,0,0-1.76.46,1,1,0,0,0-.41.8,1,1,0,0,0,.38.78,7,7,0,0,0,2.38.85,13,13,0,0,1,2.79.92,3.61,3.61,0,0,1,1.41,1.3,3.73,3.73,0,0,1,.52,2,3.77,3.77,0,0,1-.62,2.07,3.59,3.59,0,0,1-1.73,1.42,7,7,0,0,1-2.78.47A5.54,5.54,0,0,1,93,438,4.89,4.89,0,0,1,91.41,434.71Z"/><path class="cls-8" d="M103.35,434.71l2.51-.25a3,3,0,0,0,.92,1.86,2.79,2.79,0,0,0,1.88.6,2.89,2.89,0,0,0,1.88-.53,1.58,1.58,0,0,0,.63-1.24,1.19,1.19,0,0,0-.26-.77,2.11,2.11,0,0,0-.93-.55c-.31-.11-1-.3-2.08-.56A7.12,7.12,0,0,1,105,432a3.37,3.37,0,0,1-.63-4.41,3.5,3.5,0,0,1,1.6-1.29,6.38,6.38,0,0,1,2.52-.45,5.37,5.37,0,0,1,3.63,1.06,3.72,3.72,0,0,1,1.28,2.82l-2.59.11a2.17,2.17,0,0,0-.71-1.42,2.58,2.58,0,0,0-1.63-.43,3,3,0,0,0-1.77.46,1,1,0,0,0-.41.8,1,1,0,0,0,.38.78,7,7,0,0,0,2.38.85,13,13,0,0,1,2.79.92,3.64,3.64,0,0,1,1.42,1.3,4.06,4.06,0,0,1-.1,4.11,3.68,3.68,0,0,1-1.73,1.42,7.13,7.13,0,0,1-2.79.47A5.54,5.54,0,0,1,104.9,438,4.84,4.84,0,0,1,103.35,434.71Z"/><path class="cls-8" d="M115.85,438.87v-12.8h2.59v12.8Z"/><path class="cls-8" d="M124.17,438.87l-4.58-12.8h2.81l3.24,9.48,3.13-9.48h2.75l-4.59,12.8Z"/><path class="cls-8" d="M132.83,438.87v-12.8h9.5v2.16h-6.91v2.84h6.43v2.16h-6.43v3.49h7.15v2.15Z"/><path class="cls-8" d="M149.74,426.07h5.12a14,14,0,0,1,2.27.13,3.41,3.41,0,0,1,1.34.52,3.37,3.37,0,0,1,1,1.07,2.94,2.94,0,0,1,.39,1.5,3,3,0,0,1-1.8,2.78,3.37,3.37,0,0,1,1.8,1.16,3.08,3.08,0,0,1,.63,1.93,3.82,3.82,0,0,1-.4,1.7,3.6,3.6,0,0,1-1.11,1.32,3.72,3.72,0,0,1-1.74.61c-.43,0-1.47.07-3.12.08h-4.36Zm2.59,2.13v3H154c1,0,1.63,0,1.87,0a1.79,1.79,0,0,0,1-.46,1.37,1.37,0,0,0,.38-1,1.41,1.41,0,0,0-.33-1,1.55,1.55,0,0,0-1-.45c-.26,0-1,0-2.21,0Zm0,5.09v3.43h2.39a12,12,0,0,0,1.78-.08,1.65,1.65,0,0,0,.94-.51,1.59,1.59,0,0,0,.36-1.09,1.64,1.64,0,0,0-.28-1,1.58,1.58,0,0,0-.81-.58,8.34,8.34,0,0,0-2.29-.19Z"/><path class="cls-8" d="M162.13,432.55a8.12,8.12,0,0,1,.59-3.28,5.82,5.82,0,0,1,1.19-1.76,4.89,4.89,0,0,1,1.65-1.15,7,7,0,0,1,2.76-.51,6,6,0,0,1,4.53,1.76,7.85,7.85,0,0,1,0,9.73,6.74,6.74,0,0,1-9.05,0A6.58,6.58,0,0,1,162.13,432.55Zm2.67-.09a4.81,4.81,0,0,0,1,3.3,3.46,3.46,0,0,0,5.09,0,4.9,4.9,0,0,0,1-3.34,4.81,4.81,0,0,0-1-3.29,3.25,3.25,0,0,0-2.56-1.08,3.3,3.3,0,0,0-2.58,1.1A4.84,4.84,0,0,0,164.8,432.46Z"/><path class="cls-8" d="M176.56,426.07h4.73a9.37,9.37,0,0,1,2.43.24,4.29,4.29,0,0,1,1.93,1.18,5.61,5.61,0,0,1,1.23,2.08,9.4,9.4,0,0,1,.42,3,8.19,8.19,0,0,1-.4,2.73,5.6,5.6,0,0,1-1.37,2.26,4.43,4.43,0,0,1-1.82,1,7.8,7.8,0,0,1-2.28.27h-4.87Zm2.59,2.16v8.49h1.93a6.44,6.44,0,0,0,1.56-.13,2.29,2.29,0,0,0,1-.53,2.63,2.63,0,0,0,.68-1.23,8.24,8.24,0,0,0,.26-2.35,7.49,7.49,0,0,0-.26-2.28,2.94,2.94,0,0,0-.73-1.24,2.44,2.44,0,0,0-1.2-.6,11.63,11.63,0,0,0-2.12-.13Z"/><path class="cls-8" d="M192.85,438.87v-5.39l-4.69-7.41h3l3,5.06,2.95-5.06h3l-4.71,7.43v5.37Z"/><path class="cls-8" d="M206.08,438.87v-12.8h2.58v5h5.07v-5h2.58v12.8h-2.58v-5.6h-5.07v5.6Z"/><path class="cls-8" d="M230.53,438.87h-2.81L226.6,436h-5.12l-1,2.9h-2.75l5-12.8h2.74Zm-4.76-5.06L224,429.06l-1.73,4.75Z"/><path class="cls-8" d="M231.83,438.87v-12.8h2.58v12.8Z"/><path class="cls-8" d="M236.88,438.87v-12.8h5.45a9.36,9.36,0,0,1,3,.34,2.93,2.93,0,0,1,1.49,1.23,3.72,3.72,0,0,1,.56,2,3.45,3.45,0,0,1-.85,2.38,4.1,4.1,0,0,1-2.53,1.18,6,6,0,0,1,1.38,1.08,14.13,14.13,0,0,1,1.47,2.08l1.57,2.49h-3.1l-1.86-2.78a16.32,16.32,0,0,0-1.37-1.88,2,2,0,0,0-.77-.54,4.56,4.56,0,0,0-1.31-.14h-.52v5.34Zm2.59-7.39h1.91a10.43,10.43,0,0,0,2.33-.15,1.46,1.46,0,0,0,.72-.54,1.65,1.65,0,0,0,.26-1,1.53,1.53,0,0,0-.34-1,1.62,1.62,0,0,0-1-.5c-.21,0-.83,0-1.88,0h-2Z"/><g class="cls-3"><circle class="cls-4" cx="156.87" cy="622.97" r="77.91"/></g><rect class="cls-5" x="122.49" y="598.79" width="68.77" height="61" rx="4.92"/><rect class="cls-4" x="127.08" y="628.45" width="59.58" height="25.23"/><path class="cls-4" d="M182.31,621.61a26.51,26.51,0,0,0-50.87,0Z"/><path class="cls-8" d="M156.84,621.59a17.1,17.1,0,0,1,.78-1.61c.29-.53.59-1,.9-1.54s.64-1,1-1.47.71-.94,1.06-1.42l1-1.44,1-1.43,1.07-1.42.53-.71.53-.71.07,0-.46.76-.46.75-.93,1.52-.94,1.5-1,1.5c-.32.5-.62,1-.93,1.52s-.64,1-1,1.47-.72.94-1.1,1.4-.77.9-1.2,1.32Z"/><path class="cls-8" d="M14.71,725.43a8.18,8.18,0,0,1,.58-3.29,5.93,5.93,0,0,1,1.2-1.75,4.89,4.89,0,0,1,1.65-1.15,7,7,0,0,1,2.76-.51,6,6,0,0,1,4.53,1.76,7.83,7.83,0,0,1,0,9.73,5.94,5.94,0,0,1-4.5,1.75,6.05,6.05,0,0,1-4.55-1.74A6.62,6.62,0,0,1,14.71,725.43Zm2.66-.09a4.81,4.81,0,0,0,1,3.3,3.45,3.45,0,0,0,5.08,0,6.07,6.07,0,0,0,0-6.63,3.27,3.27,0,0,0-2.56-1.08,3.26,3.26,0,0,0-2.58,1.1A4.84,4.84,0,0,0,17.37,725.34Z"/><path class="cls-8" d="M29.16,719h5.11a15.6,15.6,0,0,1,2.27.12,3.59,3.59,0,0,1,1.34.53,3.37,3.37,0,0,1,1,1.07,2.94,2.94,0,0,1,.39,1.5,3,3,0,0,1-1.8,2.78,3.37,3.37,0,0,1,1.8,1.16,3.08,3.08,0,0,1,.63,1.93,3.82,3.82,0,0,1-.4,1.7,3.6,3.6,0,0,1-1.11,1.32,3.72,3.72,0,0,1-1.74.61c-.43,0-1.47.07-3.12.08H29.16Zm2.58,2.13v3h1.7c1,0,1.63,0,1.87,0a1.79,1.79,0,0,0,1-.46,1.38,1.38,0,0,0,.38-1,1.41,1.41,0,0,0-.33-1,1.55,1.55,0,0,0-1-.45c-.26,0-1,0-2.21,0Zm0,5.09v3.43h2.39a12,12,0,0,0,1.78-.08,1.65,1.65,0,0,0,.94-.51,1.59,1.59,0,0,0,.36-1.09,1.55,1.55,0,0,0-1.09-1.57,8.94,8.94,0,0,0-2.29-.18Z"/><path class="cls-8" d="M42.07,731.75V719h9.49v2.16H44.65V724h6.43v2.16H44.65v3.49H51.8v2.15Z"/><path class="cls-8" d="M53.34,727.59l2.52-.25a3,3,0,0,0,.92,1.86,2.76,2.76,0,0,0,1.87.6,2.92,2.92,0,0,0,1.89-.53,1.58,1.58,0,0,0,.63-1.24,1.15,1.15,0,0,0-.27-.77,2.21,2.21,0,0,0-.93-.56c-.3-.1-1-.29-2.07-.55A7.17,7.17,0,0,1,55,724.88a3.35,3.35,0,0,1-1.17-2.58,3.3,3.3,0,0,1,.55-1.83,3.47,3.47,0,0,1,1.6-1.3,6.5,6.5,0,0,1,2.52-.44,5.37,5.37,0,0,1,3.63,1.06,3.72,3.72,0,0,1,1.28,2.82l-2.59.11a2.21,2.21,0,0,0-.71-1.42,2.59,2.59,0,0,0-1.64-.43,2.92,2.92,0,0,0-1.76.46.93.93,0,0,0-.41.8,1,1,0,0,0,.38.77,6.76,6.76,0,0,0,2.38.86,12.47,12.47,0,0,1,2.79.92,3.61,3.61,0,0,1,1.41,1.3,3.81,3.81,0,0,1,.51,2,3.73,3.73,0,0,1-.61,2.06,3.6,3.6,0,0,1-1.73,1.43,7.23,7.23,0,0,1-2.78.47,5.52,5.52,0,0,1-3.73-1.12A4.89,4.89,0,0,1,53.34,727.59Z"/><path class="cls-8" d="M65.85,731.75V719h2.59v12.8Z"/><path class="cls-8" d="M73.78,731.75V721.11H70V719H80.16v2.16H76.37v10.64Z"/><path class="cls-8" d="M85.19,731.75v-5.39L80.5,719h3l3,5.06,3-5.06h3l-4.7,7.43v5.37Z"/><path class="cls-8" d="M92.43,732l3.17-13.24h1.84L94.24,732Z"/><path class="cls-8" d="M18.11,753.22V742.58h-3.8v-2.17H24.49v2.17H20.7v10.64Z"/><path class="cls-8" d="M26.17,753.22V740.41h5.44a9.26,9.26,0,0,1,3,.35A2.93,2.93,0,0,1,36.08,742a3.71,3.71,0,0,1,.56,2,3.37,3.37,0,0,1-.85,2.38,4,4,0,0,1-2.53,1.19,6,6,0,0,1,1.39,1.07,15.6,15.6,0,0,1,1.47,2.08l1.56,2.5H34.59l-1.87-2.79a19,19,0,0,0-1.36-1.88,2,2,0,0,0-.78-.53,4.09,4.09,0,0,0-1.3-.15h-.53v5.35Zm2.58-7.39h1.92a9.5,9.5,0,0,0,2.32-.16,1.31,1.31,0,0,0,.72-.54,1.62,1.62,0,0,0,.27-1,1.52,1.52,0,0,0-.35-1,1.55,1.55,0,0,0-1-.51c-.21,0-.84,0-1.89,0h-2Z"/><path class="cls-8" d="M38.55,746.9a8.17,8.17,0,0,1,.59-3.29,6,6,0,0,1,1.19-1.75A5.06,5.06,0,0,1,42,740.7a7.12,7.12,0,0,1,2.76-.5A6,6,0,0,1,49.28,742a7.88,7.88,0,0,1,0,9.74,6,6,0,0,1-4.51,1.75,6,6,0,0,1-4.54-1.74A6.66,6.66,0,0,1,38.55,746.9Zm2.67-.09a4.81,4.81,0,0,0,1,3.3,3.3,3.3,0,0,0,2.55,1.12,3.23,3.23,0,0,0,2.54-1.12,4.88,4.88,0,0,0,1-3.34,4.83,4.83,0,0,0-1-3.28,3.59,3.59,0,0,0-5.14,0A4.81,4.81,0,0,0,41.22,746.81Z"/><path class="cls-8" d="M53,740.41h2.58v6.94a13.44,13.44,0,0,0,.1,2.14,2.07,2.07,0,0,0,.79,1.26,2.72,2.72,0,0,0,1.71.48,2.58,2.58,0,0,0,1.65-.45,1.78,1.78,0,0,0,.68-1.11,15.25,15.25,0,0,0,.11-2.17v-7.09h2.59v6.73A17.3,17.3,0,0,1,63,750.4,3.62,3.62,0,0,1,62.2,752a3.9,3.9,0,0,1-1.5,1,6.55,6.55,0,0,1-2.47.39,6.93,6.93,0,0,1-2.78-.43,3.91,3.91,0,0,1-1.5-1.1,3.48,3.48,0,0,1-.72-1.42,15.41,15.41,0,0,1-.25-3.24Z"/><path class="cls-8" d="M65.92,740.41H71a15.39,15.39,0,0,1,2.27.13,3.38,3.38,0,0,1,1.33.53,3.16,3.16,0,0,1,1,1.07,2.83,2.83,0,0,1,.4,1.5,2.93,2.93,0,0,1-.49,1.65,3,3,0,0,1-1.31,1.13,3.32,3.32,0,0,1,1.8,1.16,3.06,3.06,0,0,1,.63,1.93,3.83,3.83,0,0,1-.41,1.7,3.42,3.42,0,0,1-1.11,1.32,3.71,3.71,0,0,1-1.73.6q-.65.07-3.12.09H65.92Zm2.59,2.14v3H70.2c1,0,1.63,0,1.88,0a1.65,1.65,0,0,0,1-.46,1.31,1.31,0,0,0,.38-1,1.4,1.4,0,0,0-.33-1,1.43,1.43,0,0,0-1-.45c-.26,0-1,0-2.21,0Zm0,5.09v3.42H70.9a10.62,10.62,0,0,0,1.77-.08,1.59,1.59,0,0,0,.94-.51,1.57,1.57,0,0,0,.36-1.08,1.62,1.62,0,0,0-.28-1,1.53,1.53,0,0,0-.8-.59,9,9,0,0,0-2.3-.18Z"/><path class="cls-8" d="M78.9,753.22v-12.7h2.59v10.54h6.42v2.16Z"/><path class="cls-8" d="M89.76,753.22V740.41h9.49v2.17H92.34v2.84h6.43v2.16H92.34v3.48H99.5v2.16Z"/><path class="cls-8" d="M106.73,753.22v-12.7h2.59v10.54h6.42v2.16Z"/><path class="cls-8" d="M117.06,746.9a8.17,8.17,0,0,1,.59-3.29,6,6,0,0,1,1.19-1.75,5,5,0,0,1,1.66-1.16,7.12,7.12,0,0,1,2.76-.5,6,6,0,0,1,4.53,1.75,7.88,7.88,0,0,1,0,9.74,6.74,6.74,0,0,1-9,0A6.62,6.62,0,0,1,117.06,746.9Zm2.67-.09a4.81,4.81,0,0,0,1,3.3,3.3,3.3,0,0,0,2.55,1.12,3.23,3.23,0,0,0,2.54-1.12,4.88,4.88,0,0,0,1-3.34,4.83,4.83,0,0,0-1-3.28,3.59,3.59,0,0,0-5.14,0A4.81,4.81,0,0,0,119.73,746.81Z"/><path class="cls-8" d="M130.85,749.05l2.51-.24a3.1,3.1,0,0,0,.92,1.86,2.79,2.79,0,0,0,1.88.59,2.83,2.83,0,0,0,1.88-.53,1.56,1.56,0,0,0,.63-1.23,1.19,1.19,0,0,0-.26-.77,2.12,2.12,0,0,0-.93-.56c-.31-.1-1-.29-2.07-.56a7,7,0,0,1-2.92-1.26,3.34,3.34,0,0,1-1.18-2.58,3.3,3.3,0,0,1,.55-1.83,3.52,3.52,0,0,1,1.6-1.3,6.38,6.38,0,0,1,2.52-.44,5.42,5.42,0,0,1,3.63,1,3.75,3.75,0,0,1,1.28,2.82l-2.58.12a2.17,2.17,0,0,0-.72-1.42,2.58,2.58,0,0,0-1.63-.43,3,3,0,0,0-1.77.46.94.94,0,0,0-.41.79,1,1,0,0,0,.39.78,6.59,6.59,0,0,0,2.37.86,12,12,0,0,1,2.79.92,3.58,3.58,0,0,1,1.42,1.3,4,4,0,0,1-.1,4.1,3.7,3.7,0,0,1-1.73,1.43,7.32,7.32,0,0,1-2.79.47,5.54,5.54,0,0,1-3.73-1.13A4.84,4.84,0,0,1,130.85,749.05Z"/><path class="cls-8" d="M143.35,753.22V740.41h2.59v12.81Z"/><path class="cls-8" d="M148.43,753.22V740.41H151l5.24,8.56v-8.56h2.4v12.81H156l-5.16-8.35v8.35Z"/><path class="cls-8" d="M167.28,748.51v-2.16h5.57v5.11a7,7,0,0,1-2.35,1.38,8.56,8.56,0,0,1-3.12.6,7.07,7.07,0,0,1-3.51-.84,5.41,5.41,0,0,1-2.24-2.42,7.78,7.78,0,0,1-.75-3.41,7.36,7.36,0,0,1,.84-3.55,5.6,5.6,0,0,1,2.45-2.39,6.68,6.68,0,0,1,3.07-.63,6.07,6.07,0,0,1,3.72,1,4.47,4.47,0,0,1,1.73,2.76l-2.57.48a2.72,2.72,0,0,0-1-1.49,3.1,3.1,0,0,0-1.86-.54,3.5,3.5,0,0,0-2.7,1.07,4.52,4.52,0,0,0-1,3.19,5,5,0,0,0,1,3.42,3.39,3.39,0,0,0,2.66,1.14,4.54,4.54,0,0,0,1.63-.32,5.65,5.65,0,0,0,1.4-.77v-1.63Z"/><path class="cls-8" d="M182,753.22,179,740.41h2.64l1.93,8.8,2.34-8.8H189l2.24,9,2-9h2.6l-3.11,12.81h-2.74l-2.55-9.57-2.54,9.57Z"/><path class="cls-8" d="M197.09,753.22V740.41h9.5v2.17h-6.91v2.84h6.43v2.16h-6.43v3.48h7.15v2.16Z"/><path class="cls-8" d="M209,753.22V740.41h2.58v12.81Z"/><path class="cls-8" d="M220,748.51v-2.16h5.57v5.11a7,7,0,0,1-2.35,1.38,8.56,8.56,0,0,1-3.12.6,7.07,7.07,0,0,1-3.51-.84,5.41,5.41,0,0,1-2.24-2.42,7.78,7.78,0,0,1-.75-3.41,7.36,7.36,0,0,1,.84-3.55,5.66,5.66,0,0,1,2.45-2.39,6.68,6.68,0,0,1,3.07-.63,6.07,6.07,0,0,1,3.72,1,4.47,4.47,0,0,1,1.73,2.76l-2.57.48a2.72,2.72,0,0,0-1-1.49,3.1,3.1,0,0,0-1.86-.54,3.5,3.5,0,0,0-2.7,1.07,4.57,4.57,0,0,0-1,3.19,5,5,0,0,0,1,3.42,3.37,3.37,0,0,0,2.65,1.14,4.5,4.5,0,0,0,1.63-.32,5.65,5.65,0,0,0,1.4-.77v-1.63Z"/><path class="cls-8" d="M227.92,753.22V740.41h2.58v5h5.07v-5h2.58v12.81h-2.58v-5.6H230.5v5.6Z"/><path class="cls-8" d="M243.71,753.22V742.58h-3.8v-2.17h10.18v2.17H246.3v10.64Z"/></g></svg>